<?xml version="1.0" encoding="UTF-8" standalone="no"?>
<!-- Created with Inkscape (http://www.inkscape.org/) -->

<svg
   width="1920"
   height="1080"
   viewBox="0 0 507.99994 285.74996"
   version="1.1"
   id="svg1"
   inkscape:version="1.3 (0e150ed6c4, 2023-07-21)"
   sodipodi:docname="assinatura.svg"
   xmlns:inkscape="http://www.inkscape.org/namespaces/inkscape"
   xmlns:sodipodi="http://sodipodi.sourceforge.net/DTD/sodipodi-0.dtd"
   xmlns="http://www.w3.org/2000/svg"
   xmlns:svg="http://www.w3.org/2000/svg">
  <sodipodi:namedview
     id="namedview1"
     pagecolor="#ffffff"
     bordercolor="#000000"
     borderopacity="0.25"
     inkscape:showpageshadow="2"
     inkscape:pageopacity="0.0"
     inkscape:pagecheckerboard="0"
     inkscape:deskcolor="#d1d1d1"
     inkscape:document-units="px"
     inkscape:zoom="0.31181444"
     inkscape:cx="554.81715"
     inkscape:cy="870.71016"
     inkscape:window-width="1440"
     inkscape:window-height="835"
     inkscape:window-x="0"
     inkscape:window-y="36"
     inkscape:window-maximized="1"
     inkscape:current-layer="g244"
     showguides="false" />
  <defs
     id="defs1" />
  <g
     inkscape:label="Layer 1"
     inkscape:groupmode="layer"
     id="layer1">
    <rect
       style="opacity:1;fill:#1a9d6a;fill-opacity:1;stroke-width:18.4068;stroke-linecap:round;stroke-linejoin:round;stroke-miterlimit:168.2;paint-order:stroke fill markers"
       id="rect1"
       width="508"
       height="285.75"
       x="0"
       y="0" />
    <path
       id="Grafema"
       class="cls-8"
       d="M 399.63501,285.75 H 508 v -56.76074 l -2.63758,-1.97555 a 139.89726,139.89726 0 0 0 -7.57513,-31.60347 L 508,176.45921 v -29.86532 l -27.18554,-34.5523 -42.07732,11.05937 a 139.99485,139.99485 0 0 0 -27.05893,-12.86612 l -14.94189,-39.38962 -60.17905,-0.509051 -18.1993,39.518861 a 140.24015,140.24015 0 0 0 -29.30351,14.0504 l -40.04902,-11.62645 -37.92051,45.7119 19.6579,38.81991 a 143.00169,143.00169 0 0 0 -7.21642,31.66943 l -33.99841,24.1444 6.97375,33.12538 h 132.87602 a 54.861673,54.861673 0 0 1 -7.72283,-7.99715 c -18.63186,-23.67228 -14.54625,-57.9661 9.12604,-76.59797 23.67756,-18.62659 57.96873,-14.53043 76.59533,9.14449 18.26524,23.19752 14.69396,56.59456 -7.7413,75.45063 z"
       style="opacity:0.15;fill:#ffffff;stroke-width:0.263758" />
    <path
       id="rect101"
       style="opacity:1;fill:#ffffff;stroke-width:10.6554;stroke-linecap:round;stroke-linejoin:round;stroke-miterlimit:168.2;paint-order:stroke fill markers"
       d="M 383.19875,0 H 507.99998 V 285.75 H 345.01959 Z"
       sodipodi:nodetypes="ccccc" />
    <g
       id="g243"
       transform="matrix(1.0000013,0,0,1.0000013,13.234861,0.00708568)"
       inkscape:label="logo">
      <g
         id="g242"
         inkscape:label="texto">
        <path
           d="m 419.0097,261.78245 a 11.105986,11.105986 0 0 1 -4.34858,-0.83063 10.617381,10.617381 0 0 1 -5.86326,-5.8144 11.638565,11.638565 0 0 1 0,-8.69716 10.531876,10.531876 0 0 1 5.86326,-5.76554 11.540844,11.540844 0 0 1 4.34858,-0.8062 12.144271,12.144271 0 0 1 4.37301,0.78177 10.458585,10.458585 0 0 1 5.88769,5.74111 11.382048,11.382048 0 0 1 0.83063,4.42187 11.623907,11.623907 0 0 1 -0.83063,4.47074 10.505002,10.505002 0 0 1 -2.35263,3.46665 10.942304,10.942304 0 0 1 -3.51796,2.24758 12.459421,12.459421 0 0 1 -4.39011,0.78421 z m 0,-5.03263 a 7.0285795,7.0285795 0 0 0 3.29808,-0.75734 6.0098385,6.0098385 0 0 0 2.3453,-2.07657 5.9121176,5.9121176 0 0 0 0,-6.20528 5.8241687,5.8241687 0 0 0 -2.3453,-2.07657 7.6149052,7.6149052 0 0 0 -6.59616,0 6.2077235,6.2077235 0 0 0 -2.34531,2.07657 5.9121176,5.9121176 0 0 0 0,6.20528 6.0098385,6.0098385 0 0 0 2.34531,2.07657 7.3290714,7.3290714 0 0 0 3.29808,0.75734 z"
           id="path110"
           style="stroke-width:0.244302"
           clip-path="none" />
        <path
           d="m 408.35079,237.54765 v -7.76881 a 9.241959,9.241959 0 0 1 0.7329,-3.7134 6.1979514,6.1979514 0 0 1 2.17429,-2.63847 c 0.97721,-0.65961 2.19873,-0.9772 3.66454,-0.9772 a 6.674341,6.674341 0 0 1 3.7134,0.9772 6.2370398,6.2370398 0 0 1 2.32087,2.63847 8.4040019,8.4040019 0 0 1 0.8062,3.7134 v 2.93163 h 7.93982 v 4.83718 z m 9.57665,-4.83718 v -1.58797 a 5.3160198,5.3160198 0 0 0 -0.29316,-1.75898 2.4845552,2.4845552 0 0 0 -0.92835,-1.24594 2.7581739,2.7581739 0 0 0 -1.68569,-0.46417 2.4845552,2.4845552 0 0 0 -2.5896,1.71011 4.8151999,4.8151999 0 0 0 -0.26874,1.75898 v 1.58797 z"
           id="path111"
           style="stroke-width:0.244302"
           clip-path="none" />
        <path
           d="m 412.58455,216.19562 v 5.10592 h -4.25086 v -15.02459 h 4.25086 v 5.07904 h 17.10116 v 4.83719 z"
           id="path112"
           style="stroke-width:0.244302"
           clip-path="none" />
        <path
           d="m 408.35079,203.98051 v -4.83963 h 21.35202 v 4.83718 z"
           id="path113"
           style="stroke-width:0.244302"
           clip-path="none" />
        <path
           d="m 408.35079,173.14955 h 21.35202 v 4.81275 h -12.58157 l -3.56681,-0.21987 4.10428,0.83063 10.33399,3.59124 v 4.73947 l -10.33399,3.56681 -4.10428,0.8062 3.56681,-0.21987 h 12.55714 v 4.83719 h -21.34469 v -6.79161 l 14.24282,-4.29972 1.71012,-0.29316 -1.71012,-0.29317 -14.24282,-4.29972 v -6.76717 z"
           id="path114"
           style="stroke-width:0.244302"
           clip-path="none" />
        <path
           d="m 408.35079,157.4409 v -4.83719 h 13.11903 a 9.5571091,9.5571091 0 0 1 4.56846,1.02607 7.0994272,7.0994272 0 0 1 2.98049,2.95606 c 0.70847,1.29481 1.0505,2.80948 1.0505,4.59289 0,1.78341 -0.34203,3.32251 -1.0505,4.61731 a 7.2973121,7.2973121 0 0 1 -2.98049,2.98049 9.5571091,9.5571091 0 0 1 -4.56846,1.02607 h -13.11903 v -4.81275 h 12.8503 a 5.6922455,5.6922455 0 0 0 2.46746,-0.46418 3.3102972,3.3102972 0 0 0 1.51467,-1.31923 3.9088381,3.9088381 0 0 0 0.51304,-2.02771 3.8306613,3.8306613 0 0 0 -0.51304,-2.00328 3.2589937,3.2589937 0 0 0 -1.51467,-1.2948 6.0758002,6.0758002 0 0 0 -2.46746,-0.46418 z"
           id="path115"
           style="stroke-width:0.244302"
           clip-path="none" />
        <path
           d="m 407.96723,141.90327 a 12.459421,12.459421 0 0 1 1.3681,-5.86326 8.1841297,8.1841297 0 0 1 0.65961,-1.09936 l 3.90884,2.32088 c -0.12215,0.17101 -0.31759,0.46417 -0.5619,0.87948 a 7.9105111,7.9105111 0 0 0 -0.65961,1.46582 5.4235128,5.4235128 0 0 0 -0.29317,1.75898 4.0163311,4.0163311 0 0 0 0.43975,2.00327 1.4658143,1.4658143 0 0 0 1.31923,0.78177 1.6026236,1.6026236 0 0 0 1.07493,-0.41531 3.8941799,3.8941799 0 0 0 0.90392,-1.27037 c 0.29316,-0.5619 0.58633,-1.29481 0.92835,-2.14986 a 14.41384,14.41384 0 0 1 1.02607,-2.24759 8.6971647,8.6971647 0 0 1 1.41695,-1.85669 6.2321537,6.2321537 0 0 1 1.88113,-1.27038 5.846156,5.846156 0 0 1 2.4186,-0.46417 5.4845884,5.4845884 0 0 1 4.76389,2.46745 7.7126261,7.7126261 0 0 1 1.14822,2.58961 12.359257,12.359257 0 0 1 0.39089,3.00492 14.345436,14.345436 0 0 1 -1.58797,6.74274 8.4430903,8.4430903 0 0 1 -0.78177,1.27037 l -4.05542,-2.41859 a 7.8347773,7.8347773 0 0 0 0.46418,-0.75734 c 0.2443,-0.43974 0.46417,-0.90391 0.68405,-1.36809 a 10.873899,10.873899 0 0 0 0.58632,-1.71012 6.4544689,6.4544689 0 0 0 0.2443,-1.80783 c 0,-1.00164 -0.19544,-1.73455 -0.58632,-2.22316 a 1.7663062,1.7663062 0 0 0 -1.51468,-0.7329 1.9153307,1.9153307 0 0 0 -1.24594,0.46417 4.9520092,4.9520092 0 0 0 -1.07493,1.39253 25.358587,25.358587 0 0 0 -1.0505,2.3453 14.997723,14.997723 0 0 1 -1.36809,2.63846 6.5326456,6.5326456 0 0 1 -2.02771,1.97885 5.4088547,5.4088547 0 0 1 -3.00492,0.75734 5.13035,5.13035 0 0 1 -3.12707,-1.00164 6.5961643,6.5961643 0 0 1 -2.02771,-2.66289 9.2150858,9.2150858 0 0 1 -0.65962,-3.54239 z"
           id="path116"
           style="stroke-width:0.244302"
           clip-path="none" />
        <path
           d="m 423.11398,118.47467 a 7.900739,7.900739 0 0 1 3.73783,0.83063 5.6189547,5.6189547 0 0 1 2.39416,2.32087 7.5122982,7.5122982 0 0 1 0.83063,3.56682 7.7492715,7.7492715 0 0 1 -0.39089,2.5896 6.667012,6.667012 0 0 1 -0.83062,1.73455 2.975603,2.975603 0 0 1 -0.68405,0.78177 l -4.17757,-1.80784 a 3.5423845,3.5423845 0 0 0 1.14822,-1.41695 2.9633879,2.9633879 0 0 0 -0.0733,-2.49189 2.1132156,2.1132156 0 0 0 -1.02607,-0.92835 4.512265,4.512265 0 0 0 -1.88113,-0.34202 h -13.85194 v -4.83719 z"
           id="path117"
           style="stroke-width:0.244302"
           clip-path="none" />
        <path
           d="m 408.33369,115.71406 v -8.69717 a 6.8624539,6.8624539 0 0 1 0.78176,-3.32251 5.650714,5.650714 0 0 1 2.24758,-2.29644 6.982162,6.982162 0 0 1 3.49353,-0.85506 q 2.01549,0 3.29808,0.7329 a 5.4332849,5.4332849 0 0 1 1.92999,1.71012 4.7443522,4.7443522 0 0 1 0.75734,1.8567 l 8.84374,-5.179211 v 5.421071 l -8.47729,4.61731 V 110.85 h 8.47729 v 4.83718 z m 9.52779,-4.83719 v -2.12788 a 3.9552555,3.9552555 0 0 0 -0.63519,-2.27201 c -0.41531,-0.65961 -1.17265,-0.97721 -2.22315,-0.97721 -1.0505,0 -1.80784,0.3176 -2.22315,0.95278 a 4.101837,4.101837 0 0 0 -0.61076,2.24758 v 2.1743 z"
           id="path118"
           style="stroke-width:0.244302"
           clip-path="none" />
        <path
           d="m 444.50754,249.76277 a 3.7329404,3.7329404 0 0 0 -0.19544,-1.27037 3.3444996,3.3444996 0 0 0 -0.39089,-0.78177 l 1.14822,-0.56189 a 3.5277264,3.5277264 0 0 1 0.51304,1.00164 4.9715534,4.9715534 0 0 1 0.26873,1.68568 4.5220371,4.5220371 0 0 1 -0.31759,1.71012 4.311937,4.311937 0 0 1 -7.06034,1.39252 4.4853917,4.4853917 0 0 1 -0.92835,-1.39252 4.5440243,4.5440243 0 0 1 -0.34202,-1.71012 4.3632405,4.3632405 0 0 1 0.26873,-1.68568 3.8844078,3.8844078 0 0 1 0.51304,-1.00164 l 1.12379,0.56189 a 3.3444996,3.3444996 0 0 0 -0.39089,0.78177 3.2199054,3.2199054 0 0 0 -0.19544,1.27037 3.6181182,3.6181182 0 0 0 0.21987,1.24594 2.8339076,2.8339076 0 0 0 0.63519,0.95278 2.4576819,2.4576819 0 0 0 0.95278,0.61076 3.3029682,3.3029682 0 0 0 2.36973,0 2.772832,2.772832 0 0 0 0.95278,-0.61076 2.8339076,2.8339076 0 0 0 0.63519,-0.95278 3.6181182,3.6181182 0 0 0 0.21987,-1.24594 z"
           id="path119"
           style="stroke-width:0.244302"
           clip-path="none" />
        <path
           d="m 441.50995,246.24482 a 4.5220371,4.5220371 0 0 1 -1.71012,-0.3176 4.2386463,4.2386463 0 0 1 -1.36809,-0.87948 4.0114451,4.0114451 0 0 1 -0.92835,-1.34367 4.3485824,4.3485824 0 0 1 0,-3.32251 3.8111171,3.8111171 0 0 1 0.92835,-1.31923 3.8697497,3.8697497 0 0 1 1.36809,-0.87949 4.5220371,4.5220371 0 0 1 1.71012,-0.31759 5.032629,5.032629 0 0 1 1.71012,0.29316 3.8697497,3.8697497 0 0 1 1.36809,0.87949 4.1677986,4.1677986 0 0 1 0.92835,1.31923 3.9845718,3.9845718 0 0 1 0.31759,1.68569 4.3974428,4.3974428 0 0 1 -0.31759,1.68568 3.9088381,3.9088381 0 0 1 -0.92835,1.31924 4.1751277,4.1751277 0 0 1 -1.36809,0.85505 3.8282183,3.8282183 0 0 1 -1.71012,0.34203 z m 0,-1.3681 a 3.4984101,3.4984101 0 0 0 1.56353,-0.36645 2.7068704,2.7068704 0 0 0 1.09936,-1.00164 2.6995413,2.6995413 0 0 0 -1.09936,-3.88441 3.6303334,3.6303334 0 0 0 -3.10264,0 2.8265785,2.8265785 0 0 0 -1.09936,0.97721 2.8656669,2.8656669 0 0 0 0,2.93163 3.0977542,3.0977542 0 0 0 1.09936,1.00164 3.6376624,3.6376624 0 0 0 1.53911,0.34202 z"
           id="path120"
           style="stroke-width:0.244302"
           clip-path="none" />
        <path
           d="m 438.57832,235.44665 0.0244,-0.0977 h 7.08477 v 1.31923 h -8.35514 v -1.85914 l 7.08477,-4.03099 0.0244,0.0733 h -7.1092 v -1.31923 h 8.35514 v 1.8567 z"
           id="path121"
           style="stroke-width:0.244302"
           clip-path="none" />
        <path
           d="m 438.52946,226.25844 v 2.17429 h -1.19708 v -5.66781 h 1.19708 v 2.17429 h 7.15806 v 1.34366 z"
           id="path122"
           style="stroke-width:0.244302"
           clip-path="none" />
        <path
           d="m 437.33238,221.64357 v -3.05378 a 2.7484018,2.7484018 0 0 1 0.29316,-1.24594 2.2182656,2.2182656 0 0 1 0.83063,-0.87949 2.5114285,2.5114285 0 0 1 1.31923,-0.3176 2.3208726,2.3208726 0 0 1 1.27037,0.29317 2.1083295,2.1083295 0 0 1 0.75734,0.70847 2.159633,2.159633 0 0 1 0.29316,0.78177 l 3.56682,-2.05214 v 1.49025 l -3.44466,1.90555 v 1.07493 h 3.46909 v 1.31924 z m 3.93327,-1.31924 v -1.27037 a 1.7101167,1.7101167 0 0 0 -0.34203,-1.12379 1.3461061,1.3461061 0 0 0 -1.09936,-0.46417 c -0.51303,0 -0.87949,0.14658 -1.07493,0.43974 a 1.7858504,1.7858504 0 0 0 -0.31759,1.12379 v 1.27037 h 2.83391 z"
           id="path123"
           style="stroke-width:0.244302"
           clip-path="none" />
        <path
           d="m 441.50995,214.85196 a 4.5220371,4.5220371 0 0 1 -1.71012,-0.31759 4.2386463,4.2386463 0 0 1 -1.36809,-0.87949 4.0114451,4.0114451 0 0 1 -0.92835,-1.34366 4.3485824,4.3485824 0 0 1 0,-3.32252 3.8111171,3.8111171 0 0 1 0.92835,-1.31923 3.8697497,3.8697497 0 0 1 1.36809,-0.87949 4.7834406,4.7834406 0 0 1 3.39581,0 3.8697497,3.8697497 0 0 1 1.36809,0.87949 4.1677986,4.1677986 0 0 1 0.92835,1.31923 4.4731766,4.4731766 0 0 1 0,3.37138 3.9088381,3.9088381 0 0 1 -0.92835,1.31923 4.1751277,4.1751277 0 0 1 -1.36809,0.85506 4.4878347,4.4878347 0 0 1 -1.68569,0.31759 z m 0,-1.36809 a 3.4984101,3.4984101 0 0 0 1.56353,-0.36646 2.7068704,2.7068704 0 0 0 1.09936,-1.00164 2.6995413,2.6995413 0 0 0 -1.09936,-3.8844 3.6303334,3.6303334 0 0 0 -3.10264,0 2.6995413,2.6995413 0 0 0 -1.09936,3.8844 3.0977542,3.0977542 0 0 0 1.09936,1.00164 3.2541077,3.2541077 0 0 0 1.53911,0.36646 z"
           id="path124"
           style="stroke-width:0.244302"
           clip-path="none" />
        <path
           d="m 437.33238,205.24843 v -1.31923 h 7.15806 v -3.20036 h 1.19708 v 4.54402 z"
           id="path125"
           style="stroke-width:0.244302"
           clip-path="none" />
        <path
           d="m 437.33238,199.36319 v -5.05706 h 1.19708 v 3.73783 h 2.39416 v -3.66454 h 1.1409 v 3.66454 h 2.41859 v -3.73783 h 1.19708 v 5.05706 z"
           id="path126"
           style="stroke-width:0.244302"
           clip-path="none" />
        <path
           d="m 437.33238,189.46894 v -5.05706 h 1.19708 v 3.73539 h 2.39416 v -3.66454 h 1.1409 v 3.66454 h 2.41859 v -3.73783 h 1.19708 v 5.05706 z"
           id="path127"
           style="stroke-width:0.244302"
           clip-path="none" />
        <path
           d="m 437.33238,177.00952 v -1.36809 l 8.35514,-3.1515 v 1.41695 l -1.90556,0.68405 v 3.46909 l 1.90556,0.68405 v 1.41695 z m 5.2525,0.61076 v -2.56518 l -3.64011,1.27038 v 0.0244 z"
           id="path128"
           style="stroke-width:0.244302"
           clip-path="none" />
        <path
           d="m 437.33238,166.57781 v -1.31923 h 5.15478 a 3.5472706,3.5472706 0 0 1 1.77608,0.41287 2.9878181,2.9878181 0 0 1 1.14822,1.12379 3.7769148,3.7769148 0 0 1 0,3.3958 2.8852111,2.8852111 0 0 1 -1.14822,1.14822 3.7549276,3.7549276 0 0 1 -1.78341,0.41532 h -5.15478 v -1.31923 h 5.10592 a 2.4137075,2.4137075 0 0 0 1.17265,-0.24431 1.6563701,1.6563701 0 0 0 0.73291,-0.68404 2.0374818,2.0374818 0 0 0 0,-1.97885 1.7931795,1.7931795 0 0 0 -0.73291,-0.68405 2.7288576,2.7288576 0 0 0 -1.17265,-0.2443 z"
           id="path129"
           style="stroke-width:0.244302"
           clip-path="none" />
        <path
           d="m 438.52946,162.10708 v 2.17429 h -1.19708 v -5.66782 h 1.19708 v 2.17185 h 7.15806 v 1.34366 h -7.15806 z"
           id="path130"
           style="stroke-width:0.244302"
           clip-path="none" />
        <path
           d="m 441.50995,157.83179 a 4.5220371,4.5220371 0 0 1 -1.71012,-0.3176 4.2386463,4.2386463 0 0 1 -1.36809,-0.87949 4.1677986,4.1677986 0 0 1 -0.92835,-1.31923 4.3485824,4.3485824 0 0 1 0,-3.32251 3.8111171,3.8111171 0 0 1 0.92835,-1.31923 3.8697497,3.8697497 0 0 1 1.36809,-0.87949 4.7834406,4.7834406 0 0 1 3.39581,0 4.0700777,4.0700777 0 0 1 2.29644,2.17429 4.4731766,4.4731766 0 0 1 0,3.37137 3.5985741,3.5985741 0 0 1 -0.92835,1.31923 4.1751277,4.1751277 0 0 1 -1.36809,0.85506 4.4878347,4.4878347 0 0 1 -1.68569,0.3176 z m 0,-1.3681 a 3.4984101,3.4984101 0 0 0 1.56353,-0.36645 2.7068704,2.7068704 0 0 0 1.09936,-1.00164 2.6995413,2.6995413 0 0 0 -1.09936,-3.88441 3.6303334,3.6303334 0 0 0 -3.10264,0 2.6995413,2.6995413 0 0 0 -1.09936,3.88441 3.0977542,3.0977542 0 0 0 1.09936,1.00164 3.3249554,3.3249554 0 0 0 1.53911,0.36645 z"
           id="path131"
           style="stroke-width:0.244302"
           clip-path="none" />
        <path
           d="m 437.33238,140.29087 h 8.35514 v 1.31924 h -5.69225 l -1.07493,-0.0733 1.19709,0.2443 5.00819,1.83227 v 1.29236 l -5.00819,1.83226 -1.19709,0.24431 1.07493,-0.0733 h 5.69225 v 1.31923 h -8.35514 v -1.80784 l 6.25414,-2.07657 0.4886,-0.0977 -0.4886,-0.0977 -6.25414,-2.101 v -1.75898 z"
           id="path132"
           style="stroke-width:0.244302"
           clip-path="none" />
        <path
           d="m 437.33238,136.04001 v -1.36809 l 8.35514,-3.1515 v 1.41451 l -1.90556,0.68405 v 3.44466 l 1.90556,0.68405 v 1.41695 z m 5.2525,0.61076 v -2.58961 l -3.64011,1.27038 v 0.0244 z"
           id="path133"
           style="stroke-width:0.244302"
           clip-path="none" />
        <path
           d="m 444.50754,126.53665 a 3.7329404,3.7329404 0 0 0 -0.19544,-1.27037 2.9316286,2.9316286 0 0 0 -0.39089,-0.78177 l 1.14822,-0.56189 a 3.5277264,3.5277264 0 0 1 0.51304,1.00164 4.9715534,4.9715534 0 0 1 0.26873,1.68568 4.5220371,4.5220371 0 0 1 -0.31759,1.71012 4.311937,4.311937 0 0 1 -7.06034,1.39252 4.4853917,4.4853917 0 0 1 -0.92835,-1.39252 4.5440243,4.5440243 0 0 1 -0.34202,-1.71012 4.3632405,4.3632405 0 0 1 0.26873,-1.68568 3.8844078,3.8844078 0 0 1 0.51304,-1.00164 l 1.12379,0.56189 a 3.3444996,3.3444996 0 0 0 -0.39089,0.78177 3.2199054,3.2199054 0 0 0 -0.19544,1.27037 3.6181182,3.6181182 0 0 0 0.21987,1.24594 2.9316286,2.9316286 0 0 0 1.58797,1.58797 3.3029682,3.3029682 0 0 0 2.36973,0 2.772832,2.772832 0 0 0 0.95278,-0.61076 2.8339076,2.8339076 0 0 0 0.63519,-0.95278 3.7573706,3.7573706 0 0 0 0.21987,-1.27037 z m 3.85998,0.0489 a 2.6580099,2.6580099 0 0 1 -0.14658,0.87949 2.2988854,2.2988854 0 0 1 -0.29317,0.53747 l -0.58632,-0.48861 a 1.023627,1.023627 0 0 0 0.21987,-0.34202 1.1115758,1.1115758 0 0 0 0.12215,-0.48861 1.0114119,1.0114119 0 0 0 -0.12215,-0.46417 0.40309893,0.40309893 0 0 0 -0.58633,-0.0977 c -0.0489,0.0244 -0.0733,0.0733 -0.0977,0.0977 a 0.84284321,0.84284321 0 0 0 -0.12215,0.43974 1.6123957,1.6123957 0 0 0 0.0244,0.34203 0.71336295,0.71336295 0 0 0 0.0489,0.21987 l -0.0977,0.14658 -1.36809,-0.48861 0.21987,-0.53746 0.73291,0.26873 a 1.9959504,1.9959504 0 0 1 0.0244,-0.65961 1.7101167,1.7101167 0 0 1 0.26873,-0.5619 0.68648969,0.68648969 0 0 1 0.56189,-0.21987 1.1482212,1.1482212 0 0 1 0.63519,0.19544 1.2215119,1.2215119 0 0 1 0.39088,0.53746 1.3558782,1.3558782 0 0 1 0.17102,0.68405 z"
           id="path134"
           style="stroke-width:0.244302"
           clip-path="none" />
        <path
           d="m 437.33238,120.08707 v -1.3681 l 8.35514,-3.1515 v 1.41696 l -1.90556,0.68404 v 3.4691 l 1.90556,0.68404 v 1.41696 z m -0.5619,1.49024 a 2.7899332,2.7899332 0 0 1 -0.63518,-0.21987 1.6075097,1.6075097 0 0 1 -0.5619,-0.41531 0.97720952,0.97720952 0 0 1 -0.2443,-0.61076 2.0936714,2.0936714 0 0 1 0.12215,-0.65962 2.5016564,2.5016564 0 0 1 0.2443,-0.51303 1.331448,1.331448 0 0 0 0.12215,-0.53747 0.42752917,0.42752917 0 0 0 -0.17101,-0.34202 1.3167898,1.3167898 0 0 0 -0.31759,-0.17101 v -0.85506 a 2.7899332,2.7899332 0 0 1 0.63518,0.21987 1.4120678,1.4120678 0 0 1 0.5619,0.43975 0.97720952,0.97720952 0 0 1 0.2443,0.61075 2.0936714,2.0936714 0 0 1 -0.12215,0.65962 2.5016564,2.5016564 0 0 1 -0.2443,0.51303 1.1360061,1.1360061 0 0 0 -0.12215,0.51304 0.42752917,0.42752917 0 0 0 0.17101,0.34202 0.80375483,0.80375483 0 0 0 0.31759,0.17101 z m 5.8144,-0.87949 v -2.5896 l -3.64011,1.27037 v 0.0244 z"
           id="path135"
           style="stroke-width:0.244302"
           clip-path="none" />
        <path
           d="m 441.50995,115.12773 a 4.5220371,4.5220371 0 0 1 -1.71012,-0.31759 4.2386463,4.2386463 0 0 1 -1.36809,-0.87949 4.1677986,4.1677986 0 0 1 -0.92835,-1.31923 4.3485824,4.3485824 0 0 1 0,-3.32252 3.8111171,3.8111171 0 0 1 0.92835,-1.31923 3.8697497,3.8697497 0 0 1 1.36809,-0.87949 4.7834406,4.7834406 0 0 1 3.39581,0 4.0700777,4.0700777 0 0 1 2.29644,2.17429 4.4731766,4.4731766 0 0 1 0,3.37138 3.5985741,3.5985741 0 0 1 -0.92835,1.31923 4.1751277,4.1751277 0 0 1 -1.36809,0.85506 4.4878347,4.4878347 0 0 1 -1.68569,0.31759 z m 0,-1.36809 a 3.4984101,3.4984101 0 0 0 1.56353,-0.36646 2.7068704,2.7068704 0 0 0 1.09936,-1.00164 2.6995413,2.6995413 0 0 0 -1.09936,-3.8844 3.6303334,3.6303334 0 0 0 -3.10264,0 2.6995413,2.6995413 0 0 0 -1.09936,3.8844 3.0977542,3.0977542 0 0 0 1.09936,1.00164 3.2541077,3.2541077 0 0 0 1.53911,0.36646 z"
           id="path136"
           style="stroke-width:0.244302"
           clip-path="none" />
      </g>
      <g
         id="g241"
         inkscape:label="icone">
        <polygon
           class="cls-5"
           points="478.71,155.09 497.41,234.79 465.81,364.59 415.01,428.69 299.01,484.99 216.11,485.49 95.81,427.29 43.81,364.19 14.61,233.79 31.71,153.79 115.71,49.89 188.41,15.59 322.71,14.79 396.61,49.69 "
           id="polygon104"
           style="fill:#136041"
           transform="matrix(0.13436631,0,0,-0.13436631,392.10712,91.31802)"
           clip-path="none" />
        <g
           id="path105"
           clip-path="none"
           class="cls-6">
          <path
             style="color:#000000;fill:#136041;stroke-miterlimit:10;-inkscape-stroke:none"
             d="m 419.98947,50.082343 a 10.369048,10.369048 0 1 1 -1.68092,14.578745 10.363673,10.363673 0 0 1 1.67958,-14.578745 v 0 m 15.72086,40.12178 10.21184,-4.810314 -0.2553,-8.276964 v 0 a 26.286081,26.286081 0 0 0 3.80257,-4.877497 l 7.79324,-1.410847 2.57984,-10.991164 -6.6377,-4.94468 v 0 a 27.025096,27.025096 0 0 0 -1.45115,-6.006174 l 3.73538,-6.987048 -7.01392,-8.85474 -7.9948,2.122988 a 27.007628,27.007628 0 0 0 -5.15966,-2.43203 l -2.83513,-7.53795 h -11.48832 l -3.43978,7.524513 a 26.881324,26.881324 0 0 0 -5.56277,2.687326 l -7.61857,-2.176734 -7.17516,8.720373 3.76226,7.376711 a 28.082559,28.082559 0 0 0 -1.3571,6.01961 v 0 l -6.44958,4.608765 2.36484,11.044911 8.11707,1.637925 a 26.666338,26.666338 0 0 0 3.86975,4.796877 l -0.38966,7.914176 10.13122,4.82375 6.31522,-5.159666 a 27.168868,27.168868 0 0 0 6.18085,-0.05375 z"
             id="path1" />
          <path
             style="color:#000000;fill:#136041;stroke-miterlimit:10;-inkscape-stroke:none"
             d="m 420.39258,24.257812 -3.55274,7.773438 c -1.71688,0.628953 -3.36328,1.426093 -4.92382,2.378906 l -7.875,-2.251953 -7.95899,9.673828 3.89063,7.63086 c -0.56754,1.73429 -0.96669,3.516283 -1.19922,5.326171 l -6.66797,4.763672 2.62305,12.25 8.39843,1.695313 c 0.99832,1.525198 2.14512,2.945043 3.42383,4.24414 l -0.4043,8.189454 11.23633,5.349609 6.52735,-5.333984 c 1.82287,0.163423 3.65469,0.146318 5.47461,-0.04687 l 6.16601,5.417968 0.55859,-0.263672 10.77149,-5.072265 -0.26563,-8.564453 c 1.26474,-1.322087 2.3906,-2.768043 3.36524,-4.316407 l 8.05469,-1.457031 2.86328,-12.193359 -6.86914,-5.115235 c -0.25277,-1.809466 -0.68319,-3.586835 -1.28321,-5.3125 l 3.86133,-7.224609 -7.7793,-9.822266 -8.26757,2.195313 c -1.43201,-0.839333 -2.93421,-1.544766 -4.49219,-2.117188 l -2.93359,-7.796875 z m 1.20703,1.88086 h 10.23437 l 2.75977,7.339844 0.41602,0.146484 c 1.73819,0.604461 3.40799,1.389664 4.98046,2.345703 l 0.3418,0.208984 7.78711,-2.068359 6.24805,7.888672 -3.64258,6.814453 0.14453,0.396484 c 0.68698,1.872475 1.15668,3.817303 1.40039,5.796875 l 0.0488,0.398438 6.4668,4.816406 -2.29883,9.791016 -7.60352,1.375 -0.21875,0.363281 c -1.03285,1.706472 -2.26499,3.285208 -3.66797,4.703125 l -0.2832,0.287109 0.24805,8.064454 -9.09375,4.283203 -5.81836,-5.113282 -0.41992,0.05273 c -1.98051,0.244227 -3.98235,0.260528 -5.9668,0.05078 l -0.39063,-0.04102 -6.15625,5.03125 -9.02734,-4.298828 0.37891,-7.708984 -0.30078,-0.294922 c -1.4191,-1.393085 -2.673,-2.947241 -3.73438,-4.628906 l -0.21484,-0.339844 -7.90625,-1.595703 -2.10743,-9.837891 6.28907,-4.49414 0.0469,-0.416016 c 0.22218,-1.981624 0.6629,-3.933098 1.3125,-5.818359 l 0.12891,-0.378907 -3.66211,-7.183593 6.39062,-7.767578 7.43164,2.123046 0.35743,-0.226562 c 1.68376,-1.06786 3.48409,-1.936538 5.36718,-2.591797 l 0.37891,-0.132812 z m 4.14453,20.759765 c -2.17697,0.124519 -4.37956,0.896293 -6.33789,2.447266 l 1.16797,1.474609 c 3.32257,-2.631434 7.32492,-2.580223 10.4375,-0.847656 3.11258,1.732568 5.26665,5.108434 4.78125,9.31836 -0.4854,4.209926 -3.3502,7.007561 -6.77539,7.986328 -3.4252,0.978766 -7.33611,0.117345 -9.97266,-3.201172 -3.25266,-4.088956 -2.56991,-10.013669 1.52735,-13.25586 l -1.16797,-1.474609 c -4.89583,3.874099 -5.71864,11.01449 -1.83203,15.900391 3.10797,3.911883 7.87722,5.006786 11.96093,3.839843 4.08372,-1.166942 7.5567,-4.617269 8.12891,-9.580078 0.57221,-4.962808 -2.02338,-9.112066 -5.73438,-11.177734 -1.85549,-1.032834 -4.00662,-1.554206 -6.18359,-1.429688 z"
             id="path2" />
        </g>
        <g
           id="path106"
           clip-path="none"
           class="cls-7">
          <path
             style="color:#000000;fill:#ffffff;stroke-miterlimit:10;-inkscape-stroke:none"
             d="m 421.4675,52.017218 a 7.7408431,7.7408431 0 1 1 -1.30335,10.883671 7.7394995,7.7394995 0 0 1 1.30335,-10.883671 v 0 m 11.63612,29.99056 7.63201,-3.574143 -0.17467,-6.180851 v 0 a 19.605388,19.605388 0 0 0 2.84856,-3.62789 l 5.81806,-1.034621 1.94831,-8.196345 -4.94468,-3.70851 v 0 a 19.867403,19.867403 0 0 0 -1.07493,-4.487835 l 2.80826,-5.199976 -5.20132,-6.624259 -5.96587,1.572086 a 20.154946,20.154946 0 0 0 -3.84287,-1.827382 l -2.12299,-5.589638 -8.5457,-0.06718 -2.57983,5.603075 a 19.664509,19.664509 0 0 0 -4.15192,1.988621 l -5.68369,-1.652706 -5.37466,6.489893 2.79482,5.509019 a 19.761253,19.761253 0 0 0 -1.02118,4.487835 v 0 l -4.82375,3.426341 1.73332,8.250091 5.88525,1.007747 c 0.37622,0.591212 0.94056,1.410847 1.38397,1.975185 a 18.088393,18.088393 0 0 0 1.65271,1.854255 l -0.30905,5.912118 7.53795,3.762257 4.7297,-3.977243 a 19.585233,19.585233 0 0 0 4.60876,-0.02687 z"
             id="path3" />
          <path
             style="color:#000000;fill:#ffffff;stroke-miterlimit:10;-inkscape-stroke:none"
             d="m 421.68555,32.515625 -2.69532,5.855469 c -1.22112,0.447952 -2.39472,1.012 -3.50976,1.68164 l -5.94141,-1.728515 -6.16211,7.441406 2.92578,5.765625 c -0.40697,1.235031 -0.69468,2.503614 -0.86328,3.792969 l -5.04101,3.580078 1.99218,9.478515 6.13086,1.048829 c 0.3685,0.55994 0.79309,1.193336 1.1875,1.695312 0.44068,0.568317 0.93164,1.092758 1.4336,1.607422 l -0.32227,6.144531 8.64258,4.3125 4.94922,-4.160156 c 1.29671,0.116715 2.59917,0.105074 3.89453,-0.02539 l 4.63477,4.115235 0.56054,-0.261719 8.19141,-3.835938 -0.18164,-6.46875 c 0.89837,-0.943175 1.70224,-1.968573 2.40625,-3.064453 L 450,68.408203 l 2.23437,-9.396484 -5.17382,-3.878907 c -0.18272,-1.291343 -0.48946,-2.56047 -0.91016,-3.794921 l 2.93555,-5.435547 -5.96485,-7.595703 -6.23828,1.642578 C 435.86708,39.356458 434.80328,38.853 433.70312,38.4375 l -2.2207,-5.84375 z m 1.20117,1.890625 7.29492,0.05859 2.04883,5.396484 0.41211,0.144531 c 1.27923,0.449802 2.50778,1.033841 3.66406,1.742188 l 0.3418,0.208984 5.75586,-1.517578 4.43945,5.654297 -2.7168,5.029297 0.14649,0.398437 c 0.50626,1.380507 0.84932,2.815328 1.02343,4.275391 l 0.0488,0.400391 4.77344,3.580078 -1.66406,6.99414 -5.62696,1.001953 -0.2207,0.361329 c -0.76491,1.253978 -1.67617,2.414517 -2.71289,3.455078 l -0.28516,0.285156 0.16797,5.96875 -6.51172,3.050781 -4.29101,-3.810547 -0.42188,0.05273 c -1.45637,0.181173 -2.93028,0.18957 -4.38867,0.02539 l -0.40039,-0.04492 -4.5664,3.839844 -6.4336,-3.210937 0.29883,-5.720703 -0.30469,-0.296875 c -0.56192,-0.549353 -1.08504,-1.13666 -1.5664,-1.757813 l -0.002,-0.0039 -0.002,-0.002 c -0.4096,-0.521305 -0.97119,-1.334461 -1.33008,-1.898438 l -0.22265,-0.351562 -5.66602,-0.970703 -1.47656,-7.021485 4.66797,-3.314453 0.0449,-0.419922 c 0.1566,-1.457761 0.48309,-2.893393 0.97265,-4.27539 l 0.13477,-0.378907 -2.69922,-5.318359 4.58789,-5.539063 5.49805,1.597657 0.35742,-0.226563 c 1.2391,-0.783773 2.56576,-1.418369 3.95313,-1.892578 l 0.38281,-0.130859 z m 2.87109,15.019531 c -1.67236,0.08813 -3.36608,0.671622 -4.87109,1.851563 -3.77217,2.956342 -4.42839,8.441647 -1.46094,12.205078 2.3677,3.003881 6.03288,3.866263 9.16797,2.984375 3.13509,-0.881888 5.81479,-3.528874 6.26953,-7.326172 0.45474,-3.797298 -1.52507,-7.000448 -4.36328,-8.597656 -1.41911,-0.798604 -3.06983,-1.205316 -4.74219,-1.117188 z m 0.11914,1.861328 c 1.30069,-0.06484 2.58044,0.263839 3.70117,0.894532 2.24147,1.261385 3.78262,3.69137 3.41797,6.736328 -0.36464,3.044957 -2.43619,5.041815 -4.91211,5.738281 -2.47592,0.696466 -5.28297,0.07093 -7.18164,-2.337891 -2.33676,-2.96357 -1.82591,-7.23253 1.14453,-9.560547 1.20688,-0.946198 2.52939,-1.40586 3.83008,-1.470703 z"
             id="path4" />
        </g>
        <circle
           class="cls-5"
           cx="426.45248"
           cy="-57.848717"
           r="12.106404"
           id="circle106"
           style="fill:#136041;stroke-width:0.134366"
           transform="scale(1,-1)"
           clip-path="none" />
        <path
           style="color:#000000;fill:#ffffff;stroke-miterlimit:10;-inkscape-stroke:none"
           d="m 427.23437,50.40625 -4.13867,7.460937 -1.02929,-0.896484 -0.15039,-0.07813 c -0.56267,-0.293342 -1.1858,-0.449124 -1.82032,-0.455078 h -0.008 -6.02539 v 2.822266 h 6.00586 c 0.16013,0.0015 0.31449,0.05004 0.46094,0.113281 l 3.33984,2.916015 2.25586,-4.066406 1.65234,7.236328 5.20313,-6.207031 6.49219,-0.126953 -0.0547,-2.820313 -6.88867,0.132813 c -0.62338,0.0043 -1.20774,0.316749 -1.5586,0.832031 l 0.084,-0.111328 -1.79102,2.136719 z"
           id="path107" />
      </g>
    </g>
    <g
       id="g244"
       transform="translate(-1.1861448,2.4448943)">
      <g
         id="g246"
         transform="translate(-0.10023013)">
        <path
           id="Site"
           class="cls-9"
           d="m 73.739476,219.0276 a 20.351554,20.351554 0 1 0 -20.984573,20.33045 v 0.0158 h 20.984573 v -19.99549 c -0.0079,-0.11605 0,-0.2321 0,-0.35079 z m -24.110103,7.04761 a 2.1549015,2.1549015 0 1 1 2.154901,-2.15491 2.1549015,2.1549015 0 0 1 -2.154901,2.15491 z m 6.024229,0 a 1.5139699,1.5139699 0 0 1 -1.51397,-1.51134 5.1511904,5.1511904 0 0 0 -5.145915,-5.14591 1.51397,1.51397 0 0 1 0,-3.02794 8.1764927,8.1764927 0 0 1 8.176492,8.17649 1.5139699,1.5139699 0 0 1 -1.516607,1.5087 z m 5.343733,0 a 1.5482585,1.5482585 0 0 1 -1.548258,-1.54826 10.439535,10.439535 0 0 0 -10.42371,-10.42371 1.5482585,1.5482585 0 1 1 0,-3.09388 13.536052,13.536052 0 0 1 13.520227,13.51759 1.5456209,1.5456209 0 0 1 -1.548259,1.54826 z"
           style="fill:#ffffff;stroke-width:0.263758" />
        <text
           x="90.982422"
           y="227.26785"
           font-size="22.4323px"
           stroke-width="0.279873"
           style="font-weight:600;line-height:1;font-family:'League Spartan';text-decoration-color:#000000;white-space:pre;fill:#ffffff;stroke-linecap:round;stroke-linejoin:round;stroke-miterlimit:168.2;paint-order:stroke fill markers"
           xml:space="preserve"
           id="text30"><tspan
             x="90.982422"
             y="227.26785"
             fill="#ffffff"
             font-family="'League Spartan'"
             font-weight="normal"
             stroke-width="0.279873"
             id="tspan30">optimusjr.com.br</tspan></text>
      </g>
      <g
         id="g245">
        <path
           id="Telefone"
           class="cls-10"
           d="m 72.779398,164.30312 a 19.921629,19.921629 0 1 0 -20.54146,19.90581 v 0.0237 h 20.54146 v -19.58402 c -0.01583,-0.11605 0,-0.22946 0,-0.34552 z m -11.373238,6.93947 c -0.33761,0.96535 -2.030935,1.89114 -2.790558,1.95445 -0.759622,0.0633 -0.759622,0.61455 -4.971835,-1.02075 -4.212212,-1.6353 -6.857704,-5.93719 -7.06871,-6.20622 a 9.3370272,9.3370272 0 0 1 -1.479681,-2.83803 5.222405,5.222405 0 0 1 -0.213644,-1.40056 4.6025741,4.6025741 0 0 1 1.44803,-3.42885 1.532433,1.532433 0 0 1 1.107783,-0.51433 c 0.276946,0 0.551254,0.0396 0.791274,0.0396 0.240019,0 0.593455,-0.14243 0.933703,0.68049 0.340247,0.82293 1.181635,2.8354 1.279225,3.04113 a 0.7411595,0.7411595 0 0 1 0.03165,0.72006 4.6052117,4.6052117 0 0 1 -0.263758,0.49059 l -0.150342,0.19782 c -0.213644,0.23738 -0.4352,0.52751 -0.625106,0.72006 -0.189905,0.19254 -0.419375,0.42465 -0.181993,0.83611 a 12.272652,12.272652 0 0 0 2.302606,2.83803 11.199157,11.199157 0 0 0 3.328624,2.04149 c 0.419375,0.20573 0.656757,0.17408 0.902052,-0.10287 0.245294,-0.27694 1.036568,-1.19482 1.318789,-1.60628 0.282221,-0.41146 0.551254,-0.34816 0.931065,-0.20573 0.379811,0.14243 2.413384,1.13152 2.832759,1.33725 0.419375,0.20573 0.68577,0.30859 0.791273,0.47476 0.105504,0.16617 0.09495,0.99701 -0.253207,1.95181 z"
           style="fill:#ffffff;fill-rule:evenodd;stroke-width:0.263758" />
        <text
           transform="scale(0.99921033,1.0007903)"
           x="89.249344"
           y="172.94846"
           font-size="24.2871px"
           stroke-width="0.303008"
           style="font-weight:600;line-height:1;font-family:'League Spartan';text-decoration-color:#000000;white-space:pre;fill:#ffffff;stroke-linecap:round;stroke-linejoin:round;stroke-miterlimit:168.2;paint-order:stroke fill markers"
           xml:space="preserve"
           id="text31"><tspan
             x="89.249344"
             y="172.94846"
             fill="#ffffff"
             font-family="'League Spartan'"
             font-weight="normal"
             stroke-width="0.303008"
             id="tspan31">71 99610-0916</tspan></text>
      </g>
      <text
         x="31.580147"
         y="105.48793"
         font-size="25.5848px"
         stroke-width="0.3192"
         style="font-weight:600;line-height:1;font-family:'League Spartan';text-decoration-color:#000000;white-space:pre;fill:#ffffff;stroke-linecap:round;stroke-linejoin:round;stroke-miterlimit:168.2;paint-order:stroke fill markers"
         xml:space="preserve"
         id="text33"><tspan
           x="31.580147"
           y="105.48793"
           fill="#ffffff"
           font-family="'League Spartan'"
           font-weight="normal"
           stroke-width="0.3192"
           id="tspan33">Daaaaaaaaaaaaaaaa</tspan></text>
      <text
         x="30.842175"
         y="69.690765"
         font-size="42.734px"
         stroke-width="0.533134"
         style="font-weight:600;line-height:1;font-family:'League Spartan';text-decoration-color:#000000;white-space:pre;fill:#ffffff;stroke-linecap:round;stroke-linejoin:round;stroke-miterlimit:168.2;paint-order:stroke fill markers"
         xml:space="preserve"
         id="text32"><tspan
           x="30.842175"
           y="69.690765"
           fill="#ffffff"
           stroke-width="0.533134"
           id="tspan32">Faaaaaaaaa</tspan></text>
    </g>
  </g>
</svg>
