<?xml version="1.0" encoding="UTF-8" standalone="no"?>
<svg
   width="1920"
   height="1090"
   version="1.1"
   viewBox="0 0 1920 1090"
   xml:space="preserve"
   id="svg115"
   sodipodi:docname="background.svg"
   inkscape:version="1.3 (0e150ed6c4, 2023-07-21)"
   xmlns:inkscape="http://www.inkscape.org/namespaces/inkscape"
   xmlns:sodipodi="http://sodipodi.sourceforge.net/DTD/sodipodi-0.dtd"
   xmlns="http://www.w3.org/2000/svg"
   xmlns:svg="http://www.w3.org/2000/svg"><sodipodi:namedview
     id="namedview115"
     pagecolor="#ffffff"
     bordercolor="#000000"
     borderopacity="0.25"
     inkscape:showpageshadow="2"
     inkscape:pageopacity="0.0"
     inkscape:pagecheckerboard="0"
     inkscape:deskcolor="#d1d1d1"
     inkscape:zoom="0.35502653"
     inkscape:cx="978.80008"
     inkscape:cy="668.96408"
     inkscape:window-width="1440"
     inkscape:window-height="835"
     inkscape:window-x="0"
     inkscape:window-y="0"
     inkscape:window-maximized="1"
     inkscape:current-layer="layer2" /><defs
     id="defs3"><style
       id="style1">.cls-1,.cls-8{fill:none;}.cls-2{clip-path:url(#clip-path);}.cls-3{clip-path:url(#clip-path-2);}.cls-4{clip-path:url(#clip-path-3);}.cls-5,.cls-6{fill:#136041;}.cls-6{stroke:#136041;}.cls-6,.cls-7,.cls-8{stroke-miterlimit:10;}.cls-6,.cls-7{stroke-width:14px;}.cls-7{fill:#fff;}.cls-7,.cls-8{stroke:#fff;}.cls-8{stroke-width:21px;}.cls-9{clip-path:url(#clip-path-4);}</style><style
       id="style2">.cls-1,.cls-8{fill:none;}.cls-2{clip-path:url(#clip-path);}.cls-3{clip-path:url(#clip-path-2);}.cls-4{clip-path:url(#clip-path-3);}.cls-5,.cls-6{fill:#136041;}.cls-6{stroke:#136041;}.cls-6,.cls-7,.cls-8{stroke-miterlimit:10;}.cls-6,.cls-7{stroke-width:14px;}.cls-7{fill:#fff;}.cls-7,.cls-8{stroke:#fff;}.cls-8{stroke-width:21px;}.cls-9{clip-path:url(#clip-path-4);}</style><style
       id="style3">.cls-1,.cls-8{fill:none;}.cls-2{clip-path:url(#clip-path);}.cls-3{clip-path:url(#clip-path-2);}.cls-4{clip-path:url(#clip-path-3);}.cls-5,.cls-6{fill:#136041;}.cls-6{stroke:#136041;}.cls-6,.cls-7,.cls-8{stroke-miterlimit:10;}.cls-6,.cls-7{stroke-width:14px;}.cls-7{fill:#fff;}.cls-7,.cls-8{stroke:#fff;}.cls-8{stroke-width:21px;}.cls-9{clip-path:url(#clip-path-4);}</style><clipPath
       id="clipPath133"><path
         d="m2880.7 119.38v1090.7h-2294v-1090.7l256.3-256.3 1781.4-2.1e-4z"
         style="paint-order:stroke fill markers"
         id="path3" /></clipPath></defs><style
     type="text/css"
     id="style115">&#10;	.st0{fill:#939393;}&#10;</style><g
     inkscape:groupmode="layer"
     id="layer3"
     inkscape:label="background"><rect
       width="1920"
       height="1090"
       fill="#fff"
       style="paint-order:stroke fill markers"
       id="rect3" /><path
       class="st0"
       d="m1156.9 811.95c-86.459 68.001-101.27 193.2-33.272 279.65 68.001 86.459 193.2 101.27 279.65 33.272 86.337-68.001 101.27-193.2 33.393-279.53-68.123-86.459-193.32-101.27-279.78-33.394v0m185.3 670.78c-39.343 4.7358-79.173 4.8572-118.52 0.6072l-121.79 102.12-194.05-96.78 8.136-152.03c-15.179-15.057-29.508-30.965-42.622-47.844-11.536-14.572-26.108-35.579-35.701-50.758l-151.79-25.865-44.686-212.26 124.1-88.158c4.3716-39.465 13.236-78.201 26.35-115.6l-71.765-141.59 138.43-166.97 146.2 42.501c33.515-21.129 69.458-38.372 106.98-51.244l66.423-144.26 219.67 1.8215 54.522 143.77c34.486 12.143 67.637 27.808 98.723 46.994l153.61-40.315 134.06 170.37-72.13 133.94c13.722 37.279 22.95 76.016 27.686 115.36l127.14 95.323-50.151 210.8-149.72 26.715c-20.765 33.879-45.294 65.208-73.344 93.38l4.3714 159.07-196.23 91.68z"
       fill="#e2e3e4"
       id="path4"
       style="fill:#e2e3e4;fill-opacity:1" /><path
       d="m1401.8 0h518.22v1090h-518.22l-121.78-121.78v-846.44z"
       fill="#1a9d6a"
       style="paint-order:stroke fill markers"
       id="path5" /><g
       transform="matrix(0,-0.47515,0.47515,0,1345.1,1368.8)"
       clip-path="url(#clipPath133)"
       fill="#178a5d"
       stroke-width="2.1046"
       id="g64"><path
         transform="matrix(1.3333 0 0 -1.3333 822.71 266.14)"
         d="m0 0h92.642v5.773h-90.396l-76.489 78.313h-169.66l-32.521 32.414h-147.41l-86.866-86.758 4.065-3.966 85.154 84.842h142.71l32.522-32.316h169.88z"
         id="path6" /><path
         transform="matrix(1.3333 0 0 -1.3333 149.62 423.47)"
         d="m0 0 155.44 0.109 109.12 109.23 111.47 0.11 103.98-103.98h359.44l84.081 84.076 119.06-0.209-0.099 5.773h-121.42l-83.981-83.976h-354.84l-104.09 103.98h-115.64l-109.65-109.22h-152.87z"
         id="path7" /><path
         transform="matrix(1.3333 0 0 -1.3333 1250.6 524.59)"
         d="m0 0h243.8l43.008 42.996h176.41v5.565h-178.97l-42.897-42.788-238.99-0.109-146.56 146.67h-224.01l-101.84 101.84h-270.87l-45.571-45.363h-44.823v-5.564h47.283l45.466 45.252h265.94l102.06-101.94h224.01z"
         id="path8" /><path
         transform="matrix(1.3333 0 0 -1.3333 569.68 983.03)"
         d="m0 0h99.382l102.38 102.38h129.76l288.41 288.08 105.59 0.219 0.209 5.773-108.15-0.208-288.3-288.2h-129.87l-102.16-102.16h-97.242z"
         id="path9" /><path
         transform="matrix(1.3333 0 0 -1.3333 406.08 556.4)"
         d="m0 0h145.17l58.089 58.409 318.68-0.318 0.213 11.546-323.5 0.219-58.409-58.409h-135.54l-73.922 74.031h-128.8v-11.338l124.09-0.22z"
         id="path10" /><path
         transform="matrix(1.3333 0 0 -1.3333 743.69 698.75)"
         d="m0 0 230.21-0.11v5.774h-227.86l-71.569 71.466h-249.15l-46.214 46.315h-96.279v-5.663h93.925l46.215-46.425h249.04z"
         id="path11" /><path
         transform="matrix(1.3333 0 0 -1.3333 526.03 839.82)"
         d="m0 0h101.74l217.91 217.59h140.78l104.62-104.41h342.75l58.201-58.202h82.586l0.208 11.557h-78.094l-58.08 58.191-342.76-0.099-104.62 104.72-150.09-1e-3 -218.23-218.02h-92.427l-46.429 46.743h-253.53l-0.214-11.447 248.83-0.209z"
         id="path12" /><path
         transform="matrix(1.3333 0 0 -1.3333 701.33 803.3)"
         d="m0 0h376.24l172.88 172.87h199.94l0.208 11.337h-204.86l-172.87-172.87h-366.61l-80.767 80.657-343.5 0.219-0.107-11.666h338.9z"
         id="path13" /><path
         transform="matrix(1.3333 0 0 -1.3333 1754.5 856.79)"
         d="m0 0h127.41l-0.208 5.663h-124.96l-84.612 84.831h-244.76v-5.455h242.09z"
         id="path14" /><path
         transform="matrix(1.3333 0 0 -1.3333 252.46 1169.9)"
         d="m0 0h437.54l124.2 123.98h223.48l87.83 87.943h88.686l-0.109 5.663h-90.824l-87.83-87.932h-223.47l-124.09-124.09h-433.15l-78.201 78.413-27.814-0.11v-5.773h25.461z"
         id="path15" /><path
         transform="matrix(1.3333 0 0 -1.3333 349.16 1373.9)"
         d="m0 0 368.96 0.164 38.191 38.188 200.58-0.164 261.45 261.56h352.92l52.637-52.526 3.954 4.174-54.126 54.246h-357.52l-261.77-261.72h-200.48l-38.083-38.187h-364.36l-28.562 28.777h-144.53v-5.729h142.06z"
         id="path16" /><path
         transform="matrix(1.3333 0 0 -1.3333 1229.9 1050.6)"
         d="m0 0 302.96 0.22v5.772h-300.5l-110.61 110.83h-397.1l-126.23 125.91-194.06 0.109-0.107-5.773h191.81l126.02-126.13h396.99z"
         id="path17" /><path
         transform="matrix(1.3333 0 0 -1.3333 931.4 262.43)"
         d="m0 0c0-6.211 4.921-11.338 11.125-11.447 6.526 0 11.554 5.236 11.554 11.447 0 6.627-5.028 11.557-11.554 11.557-6.204 0-11.125-4.93-11.125-11.557"
         clip-path="none"
         id="path18" /><path
         transform="matrix(1.3333 0 0 -1.3333 1519.3 462.12)"
         d="m 0,0 c 0,-6.419 5.138,-11.447 11.447,-11.447 6.311,0 11.448,5.028 11.448,11.447 0,6.2 -5.137,11.447 -11.448,11.338 C 5.138,11.338 0,6.2 0,0"
         clip-path="none"
         id="path19" /><path
         transform="matrix(1.3333 0 0 -1.3333 1906.5 853.22)"
         d="m0 0c0-6.211 4.918-11.338 11.447-11.338 6.2 0 11.448 5.127 11.448 11.437 0 6.32-5.248 11.556-11.667 11.556-6.31 0-11.228-5.236-11.228-11.655"
         clip-path="none"
         id="path20" /><path
         transform="matrix(1.3333 0 0 -1.3333 1302.8 739.55)"
         d="m 0,0 c 0,-6.528 5.135,-11.557 11.66,-11.557 6.312,0 11.554,5.029 11.554,11.448 0,6.309 -5.242,11.557 -11.661,11.557 C 5.348,11.229 0,6.2 0,0"
         clip-path="none"
         id="path21" /><path
         transform="matrix(1.3333 0 0 -1.3333 1516.9 882.33)"
         d="m0 0c0-6.628 5.346-11.437 11.557-11.437 6.2 0 11.119 5.029 11.338 11.437-0.219 6.419-5.028 11.447-11.338 11.775-6.419 0-11.557-5.356-11.557-11.775"
         clip-path="none"
         id="path22" /><path
         transform="matrix(1.3333 0 0 -1.3333 1488.8 974.19)"
         d="M 0,0 C 0,-6.091 5.346,-11.338 11.338,-11.229 17.757,-11.338 22.895,-6.2 22.895,0 22.895,6.419 17.757,11.666 11.338,11.666 5.346,11.666 0,6.419 0,0"
         clip-path="none"
         id="path23" /><path
         transform="matrix(1.3333 0 0 -1.3333 826.28 840.53)"
         d="m0 0c0-6.102 5.242-11.239 11.446-11.239 6.42 0 11.34 5.137 11.34 11.239 0 6.528-5.135 11.655-11.125 11.655-6.419 0-11.661-5.127-11.661-11.655"
         clip-path="none"
         id="path24" /><path
         transform="matrix(1.3333 0 0 -1.3333 635.29 595.91)"
         d="M 0,0 C 0,-6.211 5.135,-11.338 11.34,-11.338 17.758,-11.338 23,-6.31 23,0 22.894,6.419 17.973,11.338 11.34,11.338 5.135,11.338 0,6.2 0,0"
         clip-path="none"
         id="path25" /><path
         transform="matrix(1.3333 0 0 -1.3333 1252 412.49)"
         d="m0 0c0.214-6.2 5.134-11.437 11.446-11.437 6.526 0 11.34 5.237 11.34 11.437 0.214 6.321-5.028 11.447-11.232 11.447-6.42 0-11.34-5.126-11.554-11.447"
         clip-path="none"
         id="path26" /><path
         transform="matrix(1.3333 0 0 -1.3333 1034.5 692.62)"
         d="m 0,0 c 0,-6.211 5.242,-11.557 11.447,-11.557 6.311,0 11.34,5.346 11.126,11.557 0,6.2 -4.815,11.546 -11.126,11.546 C 5.028,11.546 0,6.2 0,0"
         clip-path="none"
         id="path27" /><path
         transform="matrix(1.3333 0 0 -1.3333 982.89 1e3)"
         d="m0 0c0-6.31 5.242-11.447 11.446-11.557 6.205 0.11 11.126 5.247 11.339 11.557 0 6.091-5.134 11.447-11.125 11.447-6.418 0-11.66-5.356-11.66-11.447"
         clip-path="none"
         id="path28" /><path
         transform="matrix(1.3333 0 0 -1.3333 819.01 1162.5)"
         d="m0 0c0.214-6.419 5.348-11.557 11.66-11.557 6.205 0 11.446 5.346 11.446 11.557 0 6.519-5.241 11.546-11.553 11.546-6.205 0-11.339-5.235-11.553-11.546"
         clip-path="none"
         id="path29" /><path
         transform="matrix(1.3333 0 0 -1.3333 2040 1042.6)"
         d="M 0,0 C 0,-6.419 5.138,-11.447 11.349,-11.557 17.977,-11.447 23.004,-6.419 23.004,0 22.895,6.2 17.977,11.447 11.349,11.447 5.356,11.447 0,6.2 0,0"
         clip-path="none"
         id="path30" /><path
         transform="matrix(1.3333 0 0 -1.3333 1616.1 1045.4)"
         d="m0 0c-0.109-6.31 5.138-11.229 11.557-11.546 6.31 0 11.228 5.236 11.228 11.546 0.22 6.528-4.918 11.447-11.228 11.447-6.419 0-11.557-4.919-11.557-11.447"
         clip-path="none"
         id="path31" /><path
         transform="matrix(1.3333 0 0 -1.3333 564.54 975.18)"
         d="M 0,0 C 0,-6.31 5.134,-11.655 11.554,-11.655 17.758,-11.447 23,-6.419 23,0 23,6.102 17.758,11.447 11.554,11.447 5.134,11.447 0,6.102 0,0"
         clip-path="none"
         id="path32" /><path
         transform="matrix(1.3333 0 0 -1.3333 239.33 537.15)"
         d="m0 0c-0.107-6.419 5.242-11.546 11.553-11.447 6.205 0 11.34 4.929 11.34 11.239 0 6.419-5.135 11.546-11.34 11.546-6.419 0-11.553-4.919-11.553-11.338"
         clip-path="none"
         id="path33" /><path
         transform="matrix(1.3333 0 0 -1.3333 1068.9 899.16)"
         d="m0 0c0-6.2 4.921-11.557 11.126-11.447 6.418 0 11.446 5.247 11.553 11.667 0.215 5.992-5.028 11.447-11.553 11.447-6.205 0-11.126-5.138-11.126-11.667"
         clip-path="none"
         id="path34" /><path
         transform="matrix(1.3333 0 0 -1.3333 1041.5 325.19)"
         d="m0 0c0-6.529 4.922-11.557 11.34-11.557 6.312 0 11.554 5.357 11.554 11.557s-5.242 11.13-11.554 11.13c-6.204 0.208-11.34-4.711-11.34-11.13"
         clip-path="none"
         id="path35" /><path
         transform="matrix(1.3333 0 0 -1.3333 705.18 159.31)"
         d="m 0,0 c 0.107,-6.31 5.349,-11.437 11.446,-11.437 6.312,0 11.447,5.127 11.447,11.437 0,6.419 -5.135,11.667 -11.339,11.667 C 5.349,11.447 0,6.419 0,0"
         clip-path="none"
         id="path36" /><path
         transform="matrix(1.3333 0 0 -1.3333 437.03 114.37)"
         d="m 0,0 c 0,-6.321 5.135,-11.349 11.34,-11.349 6.311,0 11.554,5.028 11.554,11.349 0,6.31 -5.136,11.546 -11.34,11.338 C 5.135,11.546 0,6.31 0,0"
         clip-path="none"
         id="path37" /><path
         transform="matrix(1.3333 0 0 -1.3333 243.9 114.37)"
         d="m 0,0 c 0,-6.419 5.134,-11.349 11.553,-11.349 5.99,0 11.34,5.028 11.34,11.349 C 23,6.2 17.758,11.546 11.553,11.546 5.134,11.338 0,6.31 0,0"
         clip-path="none"
         id="path38" /><path
         transform="matrix(1.3333 0 0 -1.3333 247.46 187.12)"
         d="m0 0c0.214-6.2 5.242-11.557 11.446-11.119 6.42 0 11.554 4.919 11.661 11.338 0 6.419-5.241 11.228-11.446 11.448-6.205 0-11.661-5.029-11.661-11.667"
         clip-path="none"
         id="path39" /><path
         transform="matrix(1.3333 0 0 -1.3333 487.23 274.7)"
         d="m 0,0 c -0.107,-6.2 5.135,-11.557 11.554,-11.557 6.418,0 11.34,5.357 11.34,11.666 C 23,6.2 17.758,11.557 11.554,11.557 5.349,11.338 0,6.2 0,0"
         clip-path="none"
         id="path40" /><path
         transform="matrix(1.3333 0 0 -1.3333 776.07 412.49)"
         d="m0 0c-0.107-6.2 5.028-11.437 11.446-11.437 6.205 0.099 11.34 4.919 11.233 11.437 0 6.321-5.028 11.447-11.233 11.447-6.418 0-11.446-5.236-11.446-11.447"
         clip-path="none"
         id="path41" /><path
         transform="matrix(1.3333 0 0 -1.3333 1849.1 463.55)"
         d="m 0,0 c 0,-6.2 5.138,-11.546 11.447,-11.546 6.42,0 11.448,5.346 11.448,11.765 0.11,5.992 -5.028,11.338 -11.448,11.338 C 5.138,11.448 0,6.211 0,0"
         clip-path="none"
         id="path42" /><path
         transform="matrix(1.3333 0 0 -1.3333 1677.1 565.39)"
         d="m0 0c0.099-8.994 7.372-16.268 16.365-16.048 8.984-0.22 16.148 6.956 16.148 16.256 0 8.774-7.164 16.268-16.148 16.268-9.092 0-16.266-7.274-16.365-16.476"
         clip-path="none"
         id="path43" /><path
         transform="matrix(1.3333 0 0 -1.3333 1078.7 471.82)"
         d="m0 0c0-8.982 7.273-16.256 15.938-16.256 9.094 0.208 16.369 7.274 16.369 16.256 0 8.983-6.954 16.256-16.369 16.256-8.665 0-15.938-7.273-15.938-16.256"
         clip-path="none"
         id="path44" /><path
         transform="matrix(1.3333 0 0 -1.3333 650.98 472.81)"
         d="M 0,0 C 0,-8.774 7.06,-16.048 16.046,-16.158 25.14,-15.939 32.307,-8.774 32.307,0 32.307,8.982 25.14,16.366 16.153,16.366 7.274,16.366 0,8.982 0,0"
         clip-path="none"
         id="path45" /><path
         transform="matrix(1.3333 0 0 -1.3333 1905 760.23)"
         d="m 0,0 c 0,-8.774 7.384,-16.049 16.366,-16.049 8.665,0 16.157,7.275 16.268,16.257 C 32.523,8.982 25.25,16.256 16.366,16.365 7.384,16.048 0,8.982 0,0"
         clip-path="none"
         id="path46" /><path
         transform="matrix(1.3333 0 0 -1.3333 255.59 82.135)"
         d="m0 0c-12.409 0-22.464-10.056-22.464-22.467 0-12.302 10.162-22.358 22.464-22.249 12.195 0 22.465 9.947 22.465 22.249 0 12.411-10.27 22.467-22.465 22.467m0-49.646c-14.762 0.33-26.958 12.412-26.958 27.179 0 14.865 11.982 27.068 26.958 27.068 14.977-0.109 26.958-12.203 26.958-27.068 0-14.767-12.195-27.179-26.958-27.179"
         clip-path="none"
         id="path47" /><path
         transform="matrix(1.3333 0 0 -1.3333 451.15 82.135)"
         d="m0 0c-12.302 0-22.572-10.056-22.358-22.358 0-12.411 10.056-22.358 22.358-22.358 12.303-0.109 22.465 9.947 22.144 22.358 0.107 12.302-9.841 22.358-22.144 22.358m0-49.316c-14.977-0.33-27.065 12.082-27.065 26.849 0 14.865 12.195 27.068 27.065 27.068 14.763 0 27.065-12.094 27.065-27.068 0-14.767-11.981-26.849-27.065-26.849"
         clip-path="none"
         id="path48" /><path
         transform="matrix(1.3333 0 0 -1.3333 717.88 126.64)"
         d="m0 0c-12.409 0-22.572-10.056-22.572-22.249 0-12.521 10.163-22.368 22.466-22.368 12.194-0.099 22.464 9.847 22.464 22.368 0 12.193-10.162 22.249-22.358 22.249m0-49.426c-14.87 0-27.065 12.192-27.065 27.177 0 14.756 12.195 26.74 26.959 26.948 14.869 0 26.958-12.192 26.958-26.948 0-14.985-12.089-27.177-26.852-27.177"
         clip-path="none"
         id="path49" /><path
         transform="matrix(1.3333 0 0 -1.3333 945.1 229.63)"
         d="m0 0c-12.196 0-22.466-10.056-22.466-22.467 0-12.303 10.27-22.249 22.466-22.249 12.409 0 22.465 9.946 22.465 22.249 0 12.411-10.163 22.467-22.465 22.467m0-49.426c-14.977 0-26.852 12.093-26.852 26.959 0 14.974 11.875 26.958 26.958 26.958 14.871 0 26.852-11.984 26.852-26.958 0-14.866-11.981-26.959-26.958-26.959"
         clip-path="none"
         id="path50" /><path
         transform="matrix(1.3333 0 0 -1.3333 502.64 245.6)"
         d="m0 0c-12.409 0-22.465-10.056-22.465-22.358-0.107-12.51 10.056-22.358 22.465-22.358s22.358 10.056 22.358 22.248c-0.107 12.412-9.949 22.26-22.358 22.468m0-49.525c-14.87 0.317-26.958 12.083-26.958 27.057 0 14.767 12.088 26.959 26.958 26.959 14.763 0 27.172-12.192 26.958-26.959 0.214-14.974-11.981-27.057-26.958-27.057"
         clip-path="none"
         id="path51" /><path
         transform="matrix(1.3333 0 0 -1.3333 1538.7 268.86)"
         d="m0 0c-12.302 0-22.358-10.056-22.358-22.249 0-12.51 9.947-22.357 22.358-22.357 12.411-0.11 22.468 9.847 22.468 22.357 0 12.302-10.057 22.249-22.468 22.249m0.219-49.317c-15.194-0.208-27.287 12.203-27.069 27.068 0 14.876 12.083 26.85 26.85 27.069 14.865 0 27.167-12.193 27.167-27.069-0.208-15.084-12.302-27.068-26.948-27.068"
         clip-path="none"
         id="path52" /><path
         transform="matrix(1.3333 0 0 -1.3333 580.8 944.38)"
         d="m0 0c-12.195 0-22.359-10.154-22.359-22.357 0-12.401 10.164-22.249 22.465-22.359 12.303 0.11 22.358 9.958 22.358 22.359 0 12.411-9.948 22.357-22.464 22.357m0.106-49.316c-15.083 0-27.064 12.411-27.064 26.959 0 14.876 11.981 27.068 27.064 27.068 14.871 0 27.065-11.875 27.065-27.068-0.213-14.548-12.194-26.741-27.065-26.959"
         clip-path="none"
         id="path53" /><path
         transform="matrix(1.3333 0 0 -1.3333 836.12 1134.8)"
         d="m0 0c-12.194 0.427-22.358-9.728-22.358-21.821 0-12.411 10.164-22.676 22.358-22.676 12.409 0 22.252 10.265 22.252 22.358 0.213 12.411-9.843 22.139-22.252 22.139m0.107-48.988c-14.869 0-27.065 12.192-26.851 26.849 0 14.866 11.982 27.069 26.851 27.069 14.87 0 26.958-12.203 26.958-27.069 0-14.766-12.088-26.959-26.958-26.849"
         clip-path="none"
         id="path54" /><path
         transform="matrix(1.3333 0 0 -1.3333 1534.6 853.52)"
         d="m0 0c-12.302 0-22.467-9.838-22.467-22.358 0-12.412 10.165-22.248 22.467-22.248 12.511 0 22.358 9.836 22.249 22.248 0 12.52-9.947 22.358-22.249 22.358m0-49.525c-14.876 0-26.75 12.301-26.959 27.167 0.209 14.657 12.192 26.849 26.959 27.068 14.865 0 26.85-12.192 26.85-27.068 0.218-15.084-11.985-27.167-26.85-27.167"
         clip-path="none"
         id="path55" /><path
         transform="matrix(1.3333 0 0 -1.3333 1634.3 1015.3)"
         d="m0 0c-12.521-0.109-22.468-10.057-22.468-22.468 0-12.083 9.947-22.248 22.468-22.248 12.083 0 22.248 10.165 22.248 22.248 0 12.411-9.946 22.468-22.248 22.468m0-49.536c-14.975 0-27.167 12.302-27.167 27.068 0 14.876 11.973 26.959 27.167 26.959 14.547 0 26.959-12.083 26.959-26.959 0-14.766-12.192-27.068-26.959-27.068"
         clip-path="none"
         id="path56" /><path
         transform="matrix(1.3333 0 0 -1.3333 1920.1 829.55)"
         d="m0 0c-10.483 0-18.819-8.556-18.819-19.05 0-10.374 8.336-19.039 18.819-18.819 10.702-0.22 18.94 8.445 19.05 18.819 0 10.494-8.457 19.05-19.05 19.05m0-42.152c-12.51 0-22.785 10.592-22.785 23.102-0.208 12.631 10.166 22.895 22.785 22.895 12.631 0 23.005-10.264 23.005-22.895 0-12.51-10.374-23.102-23.005-23.102"
         clip-path="none"
         id="path57" /><path
         transform="matrix(1.3333 0 0 -1.3333 1865.2 436.74)"
         d="m0 0c-10.593 0-19.159-8.555-19.159-19.039 0-10.702 8.457-18.83 19.159-19.038 10.374 0 19.039 8.555 19.148 19.038-0.109 10.484-8.665 19.039-19.148 19.039m0-42.142c-12.63 0-23.113 10.484-23.113 23.103 0.218 12.62 10.274 23.005 23.113 23.005 12.62 0 22.993-10.385 22.993-23.005 0-12.838-10.373-22.894-22.993-23.103"
         clip-path="none"
         id="path58" /><path
         transform="matrix(1.3333 0 0 -1.3333 1536.3 435.03)"
         d="m0 0c-10.374 0-18.94-8.446-18.94-18.819-0.099-10.703 8.457-19.05 19.159-19.05 10.374 0 18.929 8.347 18.929 18.83 0 10.593-8.555 19.039-19.148 19.039m0.219-41.934c-12.839 0-23.004 10.276-23.004 23.115 0 12.411 10.165 22.785 22.785 23.102 12.619-0.317 23.103-10.691 23.103-23.322-0.208-12.411-10.484-22.895-22.884-22.895"
         clip-path="none"
         id="path59" /><path
         transform="matrix(1.3333 0 0 -1.3333 669.24 434.31)"
         d="m0 0c-16.689 0-30.169-13.474-30.275-30.267 0.106-16.377 13.586-29.961 30.275-29.961 16.688 0 29.953 13.375 29.846 29.961 0.107 16.793-13.158 30.267-29.846 30.267m0-66.538c-20.112 0.318-36.374 16.367-36.374 36.271 0 20.112 16.262 36.369 36.374 36.369 19.897 0 36.157-16.257 36.372-36.369 0-20.014-16.261-36.271-36.372-36.271"
         clip-path="none"
         id="path60" /><path
         transform="matrix(1.3333 0 0 -1.3333 1099.1 434.31)"
         d="m0 0c-16.475 0-30.061-13.583-30.061-30.267 0-16.377 13.586-29.961 30.061-29.961 16.688-0.109 30.382 13.375 30.168 29.961 0.214 16.793-13.48 30.267-30.168 30.267m0.215-66.538c-20.112 0-36.587 16.367-36.587 36.271 0 20.112 16.475 36.369 36.372 36.369 20.219 0 36.587-16.257 36.373-36.369 0.214-19.904-16.154-36.271-36.158-36.271"
         clip-path="none"
         id="path61" /><path
         transform="matrix(1.3333 0 0 -1.3333 1699.9 525.16)"
         d="m0 0c-16.476 0-29.949-13.485-30.168-29.96-0.11-16.684 13.583-30.268 30.277-30.268 16.585 0 29.951 13.584 29.951 29.95 0 16.793-13.366 30.278-30.06 30.278m0-66.329c-20.003 0-36.368 16.366-36.259 36.369 0 20.002 16.256 36.379 36.259 36.16 19.904 0.219 36.271-16.158 36.271-36.16 0-20.003-16.367-36.369-36.271-36.369"
         clip-path="none"
         id="path62" /><path
         transform="matrix(1.3333 0 0 -1.3333 1925.6 722.57)"
         d="m0 0c-16.476 0-30.06-13.474-30.06-29.851 0-16.793 13.584-30.267 30.06-30.267 16.694 0 30.168 13.474 30.168 30.267 0 16.377-13.474 29.851-30.168 29.851m0-66.22c-20.003-0.109-36.26 16.158-36.26 36.369 0 19.685 16.257 36.27 36.26 36.27 19.904 0 36.16-16.585 36.16-36.27 0.22-20.211-16.146-36.369-36.16-36.369"
         clip-path="none"
         id="path63" /><path
         transform="matrix(1.3333 0 0 -1.3333 1552.6 298.1)"
         d="m0 0c0-5.773-4.7-10.483-10.155-10.483-5.894 0-10.385 4.71-10.385 10.483 0 5.466 4.491 10.275 10.385 10.275 5.455 0 10.155-4.809 10.155-10.275"
         clip-path="none"
         id="path64" /></g></g><g
     inkscape:groupmode="layer"
     id="layer2"
     inkscape:label="main"><text
       transform="translate(-271.65381,-408.62379)"
       x="330.75851"
       y="670.89178"
       fill="#000000"
       font-family="Ubuntu"
       font-size="64px"
       font-weight="bold"
       stroke-linecap="round"
       stroke-linejoin="round"
       stroke-miterlimit="168.2"
       stroke-width="2"
       style="line-height:1;text-decoration-color:#000000;white-space:pre;inline-size:828.734;display:inline;paint-order:stroke fill markers"
       xml:space="preserve"
       id="text65"
       inkscape:label="text65"><tspan
         x="330.75851"
         y="670.89178"
         id="tspan4"><tspan
           style="font-family:'League Spartan';-inkscape-font-specification:'League Spartan Bold'"
           id="tspan2">Sam Sumitpo,&#10;</tspan></tspan><tspan
         x="330.75851"
         y="737.87561"
         id="tspan7"><tspan
           style="font-family:'League Spartan';-inkscape-font-specification:'League Spartan Bold'"
           id="tspan6">Barril de Salvador</tspan></tspan></text><g
       id="g1"
       transform="translate(16.927769,88.435876)"><text
         transform="translate(165.67964,-84.104375)"
         x="1419.2683"
         y="201.44815"
         font-size="85.333px"
         text-align="center"
         text-anchor="middle"
         style="font-weight:bold;line-height:1;font-family:Ubuntu;text-decoration-color:#000000;white-space:pre;inline-size:520.001;display:inline;fill:#ffffff;stroke-width:2;stroke-linecap:round;stroke-linejoin:round;stroke-miterlimit:168.2;paint-order:stroke fill markers"
         xml:space="preserve"
         id="text67"><tspan
           x="1419.2683"
           y="201.44815"
           id="tspan9"><tspan
             style="font-family:'League Spartan';-inkscape-font-specification:'League Spartan Bold'"
             id="tspan8">GRUUUUUUU</tspan></tspan><tspan
           x="1419.2683"
           y="290.7596"
           id="tspan11"><tspan
             style="font-family:'League Spartan';-inkscape-font-specification:'League Spartan Bold'"
             id="tspan10">UUUUVAAA!!</tspan></tspan></text><text
         transform="translate(-885.73014,-189.96934)"
         x="2225.9937"
         y="489.90457"
         font-size="48px"
         style="font-weight:bold;line-height:1;font-family:Ubuntu;text-decoration-color:#000000;white-space:pre;inline-size:559.159;display:inline;fill:#ffffff;stroke-width:2;stroke-linecap:round;stroke-linejoin:round;stroke-miterlimit:168.2;paint-order:stroke fill markers"
         xml:space="preserve"
         id="text79"><tspan
           x="2225.9937"
           y="489.90457"
           id="tspan13"><tspan
             style="font-family:'League Spartan';-inkscape-font-specification:'League Spartan Bold'"
             id="tspan12">AUTONOMIA&#10;</tspan></tspan><tspan
           x="2225.9937"
           y="540.14247"
           id="tspan15"><tspan
             style="font-family:'League Spartan';-inkscape-font-specification:'League Spartan Bold'"
             id="tspan14">&#10;</tspan></tspan><tspan
           x="2225.9937"
           y="590.38035"
           id="tspan17"><tspan
             style="font-family:'League Spartan';-inkscape-font-specification:'League Spartan Bold'"
             id="tspan16">RESILIÊNCIA&#10;</tspan></tspan><tspan
           x="2225.9937"
           y="640.61827"
           id="tspan19"><tspan
             style="font-family:'League Spartan';-inkscape-font-specification:'League Spartan Bold'"
             id="tspan18">&#10;</tspan></tspan><tspan
           x="2225.9937"
           y="690.85618"
           id="tspan21"><tspan
             style="font-family:'League Spartan';-inkscape-font-specification:'League Spartan Bold'"
             id="tspan20">COMPROMETIMENTO </tspan></tspan><tspan
           x="2225.9937"
           y="741.0941"
           id="tspan23"><tspan
             style="font-family:'League Spartan';-inkscape-font-specification:'League Spartan Bold'"
             id="tspan22">COM RESULTADOS&#10;</tspan></tspan><tspan
           x="2225.9937"
           y="791.33201"
           id="tspan25"><tspan
             style="font-family:'League Spartan';-inkscape-font-specification:'League Spartan Bold'"
             id="tspan24">&#10;</tspan></tspan><tspan
           x="2225.9937"
           y="841.56993"
           id="tspan27"><tspan
             style="font-family:'League Spartan';-inkscape-font-specification:'League Spartan Bold'"
             id="tspan26">SENTIMENTO DE&#10;</tspan></tspan><tspan
           x="2225.9937"
           y="891.80784"
           id="tspan29"><tspan
             style="font-family:'League Spartan';-inkscape-font-specification:'League Spartan Bold'"
             id="tspan28">SER DONO&#10;</tspan></tspan><tspan
           x="2225.9937"
           y="942.04576"
           id="tspan31"><tspan
             style="font-family:'League Spartan';-inkscape-font-specification:'League Spartan Bold'"
             id="tspan30">&#10;</tspan></tspan><tspan
           x="2225.9937"
           y="992.28367"
           id="tspan33"><tspan
             style="font-family:'League Spartan';-inkscape-font-specification:'League Spartan Bold'"
             id="tspan32">ORGULHO DE&#10;</tspan></tspan><tspan
           x="2225.9937"
           y="1042.5216"
           id="tspan35"><tspan
             style="font-family:'League Spartan';-inkscape-font-specification:'League Spartan Bold'"
             id="tspan34">SER OPTIMUS</tspan></tspan></text></g><g
       transform="matrix(0.24975,0,0,0.24253,59.868,60.269)"
       stroke-width="4.0631"
       id="g109"
       inkscape:label="logo"><polygon
         class="cls-5"
         transform="matrix(1.07 0 0 -1.07 -.01 532.43)"
         points="478.71 155.09 497.41 234.79 465.81 364.59 415.01 428.69 299.01 484.99 216.11 485.49 95.81 427.29 43.81 364.19 14.61 233.79 31.71 153.79 115.71 49.89 188.41 15.59 322.71 14.79 396.61 49.69"
         stroke-width="4.0631"
         id="polygon79" /><path
         d="m225.54-1.1073-28.069 61.402c-13.987 5.0866-27.416 11.574-40.1 19.361l-62.179-17.765-62.972 76.529 30.749 60.282c-4.6515 14.104-7.9277 28.616-9.7871 43.35l-52.654 37.627 20.754 96.933 66.325 13.381c8.099 12.441 17.435 24.023 27.874 34.577l-3.1821 64.666 88.894 42.328 51.553-42.123c14.847 1.3674 29.785 1.2385 44.607-0.37216l48.678 42.782 4.1541-1.9592 85.479-40.262-2.0854-67.627c10.331-10.744 19.513-22.521 27.421-35.154l63.596-11.511 22.644-96.467-54.236-40.403c-2.0232-14.746-5.5244-29.245-10.448-43.291l30.491-57.031-61.556-77.705-65.324 17.346c-11.658-6.8695-23.915-12.653-36.627-17.291l-23.172-61.604zm47.116 194.32c12.809-0.10785 25.699 3.0382 37.387 9.5436 26.715 14.869 41.82 44.319 38.318 74.693-3.5022 30.374-24.913 55.608-54.311 64.008-29.398 8.3996-60.91-1.714-79.93-25.654l-4e-3 -4e-3c-26.067-32.769-20.594-80.267 12.242-106.25l-4.3452-5.4883h0.012l4.3452 5.4883c13.482-10.678 29.817-16.198 46.285-16.337z"
         color="#000000"
         fill="#136041"
         style="-inkscape-stroke:none"
         id="path79" /><path
         d="m235.53 64.17-21.281 46.221c-9.9435 3.6241-19.505 8.199-28.566 13.666l-46.873-13.629-49.07 59.252 23.086 45.508c-3.3319 10.041-5.6863 20.371-7.0371 30.863l-39.775 28.252 15.859 75.484 48.711 8.3418c2.9346 4.4607 6.4154 9.4999 9.5606 13.504 3e-3 4e-3 7e-3 0.01 0.01 0.0137 3.5312 4.5536 7.3772 8.8459 11.402 12.967l-2.5488 48.762 68.818 34.348 39.068-32.854c10.55 0.97165 21.161 0.91357 31.699-0.16992l36.576 32.463 69.688-32.635-1.4414-51.049c7.3327-7.6645 13.897-16.019 19.611-24.955l47.978-8.5313 17.787-74.828-40.846-30.635c-1.466-10.51-3.9385-20.846-7.3828-30.883l23.158-42.879-47.494-60.486-49.412 13.021c-8.2053-4.8024-16.795-8.8847-25.693-12.232l-17.578-46.285zm35.115 149.66c1.6376-0.0356 3.2786 4e-3 4.916 0.11719 7.8598 0.544 15.66 2.8105 22.82 6.8398 19.095 10.745 29.814 31.877 27.209 53.633-2.6054 21.756-18.011 39.759-39.104 45.691-21.092 5.9324-43.628-1.3991-57.191-18.607v-2e-3c-18.608-23.6-14.537-57.598 9.1172-76.137v-2e-3c9.43-7.3932 20.769-11.284 32.232-11.533z"
         color="#000000"
         fill="#fff"
         style="-inkscape-stroke:none"
         id="path80" /><circle
         class="cls-5"
         transform="scale(1,-1)"
         cx="273.49"
         cy="-265.9"
         r="96.407"
         stroke-width="4.3475"
         id="circle80" /><path
         d="m279.72 206.64-32.967 59.422-8.1914-7.1484-1.1875-0.61914c-4.4807-2.336-9.4511-3.5776-14.504-3.625l-0.0527-2e-3h-47.988v22.471h47.83c1.205 0.0113 2.3731 0.31048 3.4844 0.76172l26.775 23.367 17.965-32.383 13.158 57.627 41.445-49.439 51.693-1.0059-0.4375-22.465-54.996 1.0684h0.14063c-4.9641 0.0343-9.626 2.5197-12.42 6.623l0.67773-0.89453-14.266 17.016z"
         color="#000000"
         fill="#fff"
         stroke-miterlimit="10"
         stroke-width="4.0631"
         style="-inkscape-stroke:none"
         id="path81" /><g
         stroke-width="4.0631"
         id="g108"><path
           d="m626.93 217.66a105.11 105.11 0 0 1 7.5-39.9 98.36 98.36 0 0 1 53.3-54 108.14 108.14 0 0 1 79.9 0 96.77 96.77 0 0 1 53.1 54 105.11 105.11 0 0 1 7.5 39.9 107.5 107.5 0 0 1-7.3 40.2 95.82 95.82 0 0 1-52.9 54 105 105 0 0 1-40.6 7.7 106.81 106.81 0 0 1-41.1-7.7 94.75 94.75 0 0 1-52.7-54.1 118.47 118.47 0 0 1-6.7-40.1zm46.3 0a68.52 68.52 0 0 0 6.8 30.4 53 53 0 0 0 76.3 21.8 56.47 56.47 0 0 0 19.3-21.8 69.74 69.74 0 0 0 0-60.8 53.17 53.17 0 0 0-76.3-21.6 56.47 56.47 0 0 0-19.3 21.8 66.79 66.79 0 0 0-6.8 30.2z"
           id="path82" /><path
           d="m849.83 119.56h71.5a82.48 82.48 0 0 1 34 6.6 54.76 54.76 0 0 1 24.3 20.2c6.1 9.1 9.1 20.2 9.1 33.8a60.83 60.83 0 0 1-9.1 34.3 56.32 56.32 0 0 1-24.3 21.3 76.84 76.84 0 0 1-34 7.3h-27v73.1h-44.5zm44.5 88.3h14.5a50.65 50.65 0 0 0 16.3-2.7 24.49 24.49 0 0 0 11.6-8.6 25.23 25.23 0 0 0 4.3-15.7 26.33 26.33 0 0 0-4.3-15.7 23.24 23.24 0 0 0-11.6-8.2 49.61 49.61 0 0 0-16.3-2.5h-14.5z"
           id="path83" /><path
           d="m1046.4 158.66h-47v-39h138.2v39h-46.7v157.5h-44.5z"
           id="path84" /><path
           d="m1158.7 119.56h44.5v196.6h-44.5z"
           id="path85" /><path
           d="m1442.5 119.56v196.6h-44.3v-115.5l2-32.9-7.5 37.7-33.1 95.1h-43.63l-33.1-95.3-7.5-37.7 1.8 32.9v115.54h-44.3v-196.64h62.4l39.7 131.2 2.8 15.7 2.7-15.7 39.5-131.2h62.4v0.2z"
           id="path86" /><path
           d="m1587 119.56h44.5v120.8a87.42 87.42 0 0 1-9.5 42 66.73 66.73 0 0 1-27.2 27.5c-11.8 6.6-25.9 9.8-42.2 9.8s-30.6-3.2-42.7-9.8a67.32 67.32 0 0 1-27.2-27.5 88.59 88.59 0 0 1-9.5-42v-120.8h44.3v118.3a52.74 52.74 0 0 0 4.3 22.7 30.48 30.48 0 0 0 12 13.8 37.63 37.63 0 0 0 18.6 4.8 33.62 33.62 0 0 0 18.4-4.8 32.68 32.68 0 0 0 12-13.8 55.88 55.88 0 0 0 4.3-22.7v-118.3z"
           id="path87" /><path
           d="m1730 116a107.77 107.77 0 0 1 32 4.1 124.65 124.65 0 0 1 22 8.4c3.4 1.8 6.8 3.9 10.2 5.9l-21.3 35.9c-1.6-1.1-4.3-3-8.2-5.2a75.38 75.38 0 0 0-13.6-6.1 49.77 49.77 0 0 0-16.3-2.7 38 38 0 0 0-18.6 4.1 12.72 12.72 0 0 0-7 12 15 15 0 0 0 3.9 10 41.46 41.46 0 0 0 11.6 8.4 215.57 215.57 0 0 0 20 8.6 128.49 128.49 0 0 1 20.7 9.5 77.75 77.75 0 0 1 17 12.9 58.39 58.39 0 0 1 11.8 17.3 53.57 53.57 0 0 1 4.3 22.2 49.78 49.78 0 0 1-22.7 43.8 76.33 76.33 0 0 1-23.8 10.7 104.08 104.08 0 0 1-27.7 3.4 134.29 134.29 0 0 1-62-14.5 118 118 0 0 1-11.8-7l22.2-37.5c2.3 1.6 4.5 3 6.8 4.3a120.17 120.17 0 0 0 12.5 6.1 90.28 90.28 0 0 0 15.9 5.4 65.83 65.83 0 0 0 16.6 2.3c9.1 0 15.9-1.8 20.4-5.2a16.69 16.69 0 0 0 6.8-13.8 18.05 18.05 0 0 0-4.3-11.6 39.61 39.61 0 0 0-12.9-9.5 196.66 196.66 0 0 0-21.6-9.5 144.16 144.16 0 0 1-24.3-12.7 59.84 59.84 0 0 1-18.2-18.6 50.67 50.67 0 0 1-7-27.7 45.61 45.61 0 0 1 9.3-28.6 60.72 60.72 0 0 1 24.7-18.8 90.44 90.44 0 0 1 32.6-6.3z"
           id="path88" /><path
           d="m1945.7 255.56a75.87 75.87 0 0 1-7.5 34.5 53.15 53.15 0 0 1-21.3 22 66.85 66.85 0 0 1-32.9 7.5 70.74 70.74 0 0 1-23.8-3.4 67.5 67.5 0 0 1-16.1-7.5 28.25 28.25 0 0 1-7.3-6.1l16.6-38.6a37.18 37.18 0 0 0 5 5.4 43 43 0 0 0 7.9 5.2 26.63 26.63 0 0 0 22.9-0.7 19.42 19.42 0 0 0 8.6-9.3 41 41 0 0 0 3.2-17.5v-127.3h44.7z"
           id="path89" /><path
           d="m1970.9 119.36h80.07a64.69 64.69 0 0 1 30.4 7 51.32 51.32 0 0 1 21.1 20.7 61.17 61.17 0 0 1 7.7 32.2c0 12.5-2.3 22.5-6.6 30.4a47.33 47.33 0 0 1-15.9 17.7 42.94 42.94 0 0 1-17 7l47.7 81.5h-49.9l-42.7-78.1h-10.7v78.1h-44.5v-196.6h0.3zm44.4 87.6h19.67a36.69 36.69 0 0 0 20.9-5.9c5.9-3.9 8.9-10.7 8.9-20.7 0-9.8-3-16.6-8.9-20.4a36.77 36.77 0 0 0-20.7-5.7h-20l0.1 52.7z"
           id="path90" /><path
           d="m737.53 452.36a35.17 35.17 0 0 0 11.6-1.8 31 31 0 0 0 7.3-3.6l5.2 10.4a37.68 37.68 0 0 1-9.1 4.8 45.62 45.62 0 0 1-15.7 2.3 41.22 41.22 0 0 1-15.9-3 42.23 42.23 0 0 1-12.9-8.4 41.06 41.06 0 0 1-8.6-12.5 41.94 41.94 0 0 1-3.2-15.7 37.11 37.11 0 0 1 3.2-15.7 39.63 39.63 0 0 1 8.6-12.7 35.18 35.18 0 0 1 12.9-8.4 39.13 39.13 0 0 1 15.9-3 46.71 46.71 0 0 1 15.7 2.3 31.78 31.78 0 0 1 9.1 4.8l-5.2 10.4a31 31 0 0 0-7.3-3.6 32.4 32.4 0 0 0-11.6-1.8 33.19 33.19 0 0 0-11.3 2 27.14 27.14 0 0 0-8.9 5.9 25.67 25.67 0 0 0-5.7 8.9 28.52 28.52 0 0 0-2 10.9 31.38 31.38 0 0 0 2 10.9 25.17 25.17 0 0 0 5.7 8.9 26.14 26.14 0 0 0 8.9 5.9 38.18 38.18 0 0 0 11.3 1.8z"
           id="path91" /><path
           d="m769.73 424.66a40.24 40.24 0 0 1 3-15.7 34.32 34.32 0 0 1 8.2-12.7 37.39 37.39 0 0 1 12.3-8.4 38.06 38.06 0 0 1 50.2 19.5c0.2 0.5 0.5 1.1 0.7 1.6a43.33 43.33 0 0 1 0 31.3 37.8 37.8 0 0 1-7.9 12.7 34.59 34.59 0 0 1-12.3 8.4 37.74 37.74 0 0 1-15.4 3 40.24 40.24 0 0 1-15.7-3 38.45 38.45 0 0 1-12.3-8.4 37.8 37.8 0 0 1-7.9-12.7 42.27 42.27 0 0 1-2.9-15.6zm12.7 0a30.46 30.46 0 0 0 3.4 14.3 25.55 25.55 0 0 0 9.1 10.2 25.82 25.82 0 0 0 26.8 0 26.31 26.31 0 0 0 9.1-10.2 33.32 33.32 0 0 0 0-28.6 25.55 25.55 0 0 0-9.1-10.2 25.82 25.82 0 0 0-26.8 0 25 25 0 0 0-9.1 10.2 30.46 30.46 0 0 0-3.4 14.3z"
           id="path92" /><path
           d="m869.33 397.66h0.9v65.4h-12.3v-76.7h17l37 65.1-0.7 0.2v-65.4h12.3v76.74h-17z"
           id="path93" /><path
           d="m953.83 397.16h-20v-10.9h52.17v10.9h-20v65.84h-12.3v-65.8z"
           id="path94" /><path
           d="m996.23 386.26h28.1a26 26 0 0 1 11.6 2.7 20.89 20.89 0 0 1 8.2 7.7 23.39 23.39 0 0 1 3 12.3 20.71 20.71 0 0 1-9.3 18.8 14.48 14.48 0 0 1-7.3 2.5l18.8 32.7h-13.8l-17.5-31.7h-9.8v31.8h-12.3zm12.3 36.1h11.6a16 16 0 0 0 10.4-3.2 11.28 11.28 0 0 0 4.1-10c0-4.8-1.4-7.9-4.1-10a17 17 0 0 0-10.2-3h-11.8z"
           id="path95" /><path
           d="m1058.6 424.66a40.24 40.24 0 0 1 3-15.7 34.32 34.32 0 0 1 8.2-12.7 37.39 37.39 0 0 1 12.3-8.4 39.6 39.6 0 0 1 30.6 0 38.7 38.7 0 0 1 20.4 21.1 41.76 41.76 0 0 1 3 15.7 46.28 46.28 0 0 1-2.7 15.7 37.8 37.8 0 0 1-7.9 12.7 34.59 34.59 0 0 1-12.3 8.4 40.85 40.85 0 0 1-31.1 0 38.45 38.45 0 0 1-12.3-8.4 37.8 37.8 0 0 1-7.9-12.7 36.64 36.64 0 0 1-3.3-15.7zm12.7 0a30.46 30.46 0 0 0 3.4 14.3 25.55 25.55 0 0 0 9.1 10.2 25.82 25.82 0 0 0 26.8 0 26.31 26.31 0 0 0 9.1-10.2 33.32 33.32 0 0 0 0-28.6 25.55 25.55 0 0 0-9.1-10.2 25.82 25.82 0 0 0-26.8 0 25 25 0 0 0-9.1 10.2 31.71 31.71 0 0 0-3.4 14.3z"
           id="path96" /><path
           d="m1146.9 386.26h12.3v65.8h29.5v10.94h-41.8z"
           id="path97" /><path
           d="m1201.2 386.26h46.5v10.9h-34.3v22h33.8v10.7h-33.8v22.2h34.3v10.94h-46.5z"
           id="path98" /><path
           d="m1292.2 386.26h46.5v10.9h-34.3v22h33.8v10.7h-33.8v22.2h34.3v10.94h-46.5z"
           id="path99" /><path
           d="m1406.8 386.26h12.5l29.1 76.7h-12.9l-6.4-17.5h-31.5l-6.4 17.5h-13.23zm-5.4 48.4h23.8l-11.8-33.4h-0.2z"
           id="path100" /><path
           d="m1502.8 386.26h12.3v47.4a31 31 0 0 1-3.9 16.3 28.15 28.15 0 0 1-10.4 10.7 34.12 34.12 0 0 1-31.1 0 24.42 24.42 0 0 1-10.4-10.7 34.38 34.38 0 0 1-3.9-16.3v-47.4h12.3v46.8a24.53 24.53 0 0 0 2.3 10.7 16.72 16.72 0 0 0 6.4 6.8 18.45 18.45 0 0 0 18.2 0 16 16 0 0 0 6.1-6.8 24.84 24.84 0 0 0 2.3-10.7z"
           id="path101" /><path
           d="m1544.1 397.16h-20v-10.9h52.2v10.9h-20v65.84h-12.33v-65.8z"
           id="path102" /><path
           d="m1583.4 424.66a40.24 40.24 0 0 1 3-15.7 34.32 34.32 0 0 1 8.2-12.7 37.39 37.39 0 0 1 12.3-8.4 39.6 39.6 0 0 1 30.6 0 38.7 38.7 0 0 1 20.4 21.1 41.76 41.76 0 0 1 3 15.7 46.28 46.28 0 0 1-2.7 15.7 37.8 37.8 0 0 1-7.9 12.7 32.92 32.92 0 0 1-12.3 8.4 40.85 40.85 0 0 1-31.1 0 38.45 38.45 0 0 1-12.3-8.4 37.8 37.8 0 0 1-7.9-12.7 36.64 36.64 0 0 1-3.3-15.7zm12.7 0a30.46 30.46 0 0 0 3.4 14.3 25.55 25.55 0 0 0 9.1 10.2 25.82 25.82 0 0 0 26.8 0 26.31 26.31 0 0 0 9.1-10.2 33.32 33.32 0 0 0 0-28.6 25.55 25.55 0 0 0-9.1-10.2 25.82 25.82 0 0 0-26.8 0 25 25 0 0 0-9.1 10.2 30.46 30.46 0 0 0-3.4 14.3z"
           id="path103" /><path
           d="m1744.8 386.26v76.74h-12.3v-52.2l0.7-9.8-2.3 11.1-16.8 46.2h-12l-16.8-46.1-2.3-11.1 0.7 9.8v52.2h-12.3v-76.7h16.57l19.3 57.4 0.9 4.5 0.7-4.5 19.3-57.5z"
           id="path104" /><path
           d="m1784.1 386.26h12.5l28.8 76.7h-12.9l-6.4-17.5h-31.5l-6.4 17.5h-13.23zm-5.7 48.4h23.8l-11.8-33.4h-0.2z"
           id="path105" /><path
           d="m1871.2 452.36a35.17 35.17 0 0 0 11.6-1.8 31 31 0 0 0 7.3-3.6l5.2 10.4a37.68 37.68 0 0 1-9.1 4.8 45.62 45.62 0 0 1-15.7 2.3 41.22 41.22 0 0 1-15.9-3 42.23 42.23 0 0 1-12.9-8.4 41.06 41.06 0 0 1-8.6-12.5 38.19 38.19 0 0 1-3-15.7 40.24 40.24 0 0 1 3-15.7 39.63 39.63 0 0 1 8.6-12.7 35.18 35.18 0 0 1 12.9-8.4 39.13 39.13 0 0 1 15.9-3 46.71 46.71 0 0 1 15.7 2.3 31.78 31.78 0 0 1 9.1 4.8l-5.2 10.4a31 31 0 0 0-7.3-3.6 32.4 32.4 0 0 0-11.6-1.8 33.19 33.19 0 0 0-11.3 2 27.14 27.14 0 0 0-8.9 5.9 25.67 25.67 0 0 0-5.7 8.9 28.52 28.52 0 0 0-2 10.9 31.38 31.38 0 0 0 2 10.9 28.8 28.8 0 0 0 5.7 8.9 26.14 26.14 0 0 0 8.9 5.9 39.25 39.25 0 0 0 11.3 1.8zm-0.23 35.64a26.65 26.65 0 0 1-8.2-1.4 24.16 24.16 0 0 1-5-2.7l4.5-5.2a8.25 8.25 0 0 0 3.2 2 10.3 10.3 0 0 0 4.5 1.1 10.13 10.13 0 0 0 4.3-1.1 3.69 3.69 0 0 0 1.8-3.2 3.53 3.53 0 0 0-1.6-3.2 6.12 6.12 0 0 0-4.1-0.9 17.74 17.74 0 0 0-3.2 0.2 4.55 4.55 0 0 0-2 0.5l-1.4-0.9 4.5-12.5 5 1.8-2.5 6.8a19.26 19.26 0 0 1 5.9 0.2 13.09 13.09 0 0 1 5 2.5 5.91 5.91 0 0 1 2 5 11.63 11.63 0 0 1-1.8 5.9 11.1 11.1 0 0 1-5 3.6 10.18 10.18 0 0 1-5.9 1.5z"
           id="path106" /><path
           d="m1930.7 386.26h12.5l29.1 76.7h-12.9l-6.4-17.5h-31.5l-6.4 17.5h-13.2zm-13.6-5.2a29.28 29.28 0 0 1 2-5.9 17.75 17.75 0 0 1 3.9-5.2 7.2 7.2 0 0 1 5.7-2 14.62 14.62 0 0 1 6.1 1.1 26.76 26.76 0 0 1 4.8 2.3 12 12 0 0 0 4.8 1.1 3.54 3.54 0 0 0 3-1.6 6.73 6.73 0 0 0 1.6-3h7.9a29.28 29.28 0 0 1-2 5.9 14.55 14.55 0 0 1-3.9 5.2 9.82 9.82 0 0 1-5.8 2.3 14.07 14.07 0 0 1-6.1-1.1 26.76 26.76 0 0 1-4.8-2.3 10.3 10.3 0 0 0-4.5-1.1 3.89 3.89 0 0 0-3 1.4 6.73 6.73 0 0 0-1.6 3h-8.1zm8.1 53.6h23.77l-11.7-33.4h-0.2z"
           id="path107" /><path
           d="m1976.3 424.66a40.24 40.24 0 0 1 3-15.7 34.32 34.32 0 0 1 8.2-12.7 37.39 37.39 0 0 1 12.3-8.4 39.6 39.6 0 0 1 30.6 0 38.7 38.7 0 0 1 20.4 21.1 41.76 41.76 0 0 1 3 15.7 46.28 46.28 0 0 1-2.7 15.7 37.8 37.8 0 0 1-7.9 12.7 32.92 32.92 0 0 1-12.3 8.4 40.85 40.85 0 0 1-31.1 0 38.45 38.45 0 0 1-12.3-8.4 37.8 37.8 0 0 1-7.9-12.7 36.64 36.64 0 0 1-3.3-15.7zm12.7 0a30.46 30.46 0 0 0 3.4 14.3 25.55 25.55 0 0 0 9.1 10.2 25.82 25.82 0 0 0 26.8 0 26.31 26.31 0 0 0 9.1-10.2 33.32 33.32 0 0 0 0-28.6 25.55 25.55 0 0 0-9.1-10.2 25.82 25.82 0 0 0-26.8 0 25 25 0 0 0-9.1 10.2 30.46 30.46 0 0 0-3.43 14.3z"
           id="path108" /></g></g></g><g
     inkscape:groupmode="layer"
     id="layer1"
     inkscape:label="guides"
     style="display:none"><rect
       transform="scale(-1)"
       x="-60"
       y="-1090"
       width="60"
       height="1090"
       style="mix-blend-mode:normal;fill:#f5c211;paint-order:stroke fill markers"
       id="rect110" /><rect
       transform="scale(-1)"
       x="-1340"
       y="-1090"
       width="60"
       height="1090"
       display="inline"
       style="mix-blend-mode:normal;fill:#f5c211;paint-order:stroke fill markers"
       id="rect111" /><rect
       transform="scale(-1)"
       x="-1920"
       y="-1090"
       width="60"
       height="1090"
       display="inline"
       style="mix-blend-mode:normal;fill:#f5c211;paint-order:stroke fill markers"
       id="rect112" /><rect
       transform="rotate(-90)"
       x="-60"
       width="60"
       height="1920"
       display="inline"
       style="mix-blend-mode:normal;fill:#f5c211;paint-order:stroke fill markers"
       id="rect113"
       y="0" /><rect
       transform="rotate(-90)"
       x="-219.25999"
       y="60"
       width="30"
       height="1220"
       display="inline"
       fill="#c01c28"
       style="mix-blend-mode:normal;paint-order:stroke fill markers"
       id="rect114" /><rect
       transform="rotate(-90)"
       x="-1090"
       width="60"
       height="1920"
       display="inline"
       fill="#f5c211"
       style="mix-blend-mode:normal;paint-order:stroke fill markers"
       id="rect115"
       y="0" /></g></svg>
